<svg width="113" height="58" viewBox="0 0 113 58" fill="none" xmlns="http://www.w3.org/2000/svg">
<path d="M90.0041 17.5506C92.2009 19.7452 92.2009 23.3166 90.0041 25.5112L85.083 30.348L85.0329 30.0709C84.6736 28.083 83.7276 26.2791 82.2995 24.8524C81.2238 23.78 79.9526 22.9872 78.5199 22.4964C77.6307 23.3893 77.1418 24.5593 77.1418 25.7907C77.1418 26.0406 77.1646 26.2996 77.21 26.5585C77.9992 26.8425 78.6973 27.281 79.284 27.8671C81.4808 30.0618 81.4808 33.6332 79.284 35.8278L74.9996 40.108C73.9012 41.2053 72.4594 41.7528 71.0154 41.7528C69.5713 41.7528 68.1295 41.2053 67.0312 40.108C64.8344 37.9134 64.8344 34.342 67.0312 32.1474L71.9523 27.3128L72.0023 27.59C72.3594 29.5733 73.3054 31.3772 74.7381 32.8062C75.816 33.8831 77.0099 34.5987 78.4403 35.0872L78.7041 34.8236C79.5046 34.0239 79.9435 32.9607 79.9435 31.827C79.9435 31.5748 79.9208 31.3227 79.8776 31.075C79.0521 30.8024 78.3721 30.4139 77.7535 29.796C76.8621 28.9054 76.3072 27.7672 76.1526 26.5063C76.1412 26.4154 76.1344 26.3268 76.1253 26.2359C76.0025 24.5934 76.596 22.9894 77.7535 21.8353L82.038 17.5551C83.1 16.4941 84.5145 15.908 86.0222 15.908C87.5299 15.908 88.9444 16.4919 90.0064 17.5551L90.0041 17.5506ZM112.377 28.8645C112.377 44.5245 99.6236 57.2629 83.9505 57.2629H28.9399C13.2668 57.2629 0.513672 44.5245 0.513672 28.8645C0.513672 13.2045 13.2668 0.466064 28.9399 0.466064H83.9505C99.6236 0.466064 112.377 13.2067 112.377 28.8645ZM55.2968 43.1069C55.7448 42.5639 53.6754 41.0349 53.2524 40.4738C52.3928 39.5423 52.3882 38.2019 51.8083 37.1137C50.3893 33.8285 48.7587 30.5684 46.4778 27.7876C44.0673 24.7456 41.0927 22.2284 38.4798 19.3726C36.54 17.3802 36.0215 14.5426 34.3091 12.4002C31.9486 8.91744 24.485 7.9678 23.3911 12.8864C23.3957 13.0409 23.3479 13.1386 23.2138 13.2363C22.6088 13.6747 22.0699 14.1768 21.6173 14.7834C20.5099 16.3238 20.3393 18.9364 21.7219 20.32C21.7674 19.5907 21.7924 18.9023 22.3701 18.3798C23.4389 19.2954 25.0535 19.6202 26.2929 18.9364C29.0309 22.8418 28.3487 28.2443 30.5227 32.4518C31.1231 33.4469 31.728 34.4624 32.4989 35.3348C33.1243 36.3072 35.2847 37.4545 35.412 38.3541C35.4348 39.899 35.2529 41.587 36.2671 42.8797C36.7447 43.8475 35.5712 44.8199 34.6252 44.6995C33.3972 44.8676 31.8986 43.8748 30.8229 44.4859C30.4431 44.8971 29.6995 44.4427 29.372 45.013C29.2583 45.3083 28.6443 45.7241 29.0104 46.0081C29.4175 45.6991 29.795 45.3765 30.3431 45.5605C30.2612 46.0058 30.6137 46.0694 30.8934 46.1989C30.8843 46.5011 30.7069 46.81 30.9389 47.0668C31.2095 46.7941 31.371 46.4079 31.8008 46.2943C33.2289 48.1959 34.6821 44.37 37.7726 46.0921C37.1449 46.0603 36.5878 46.1398 36.1648 46.6556C36.0602 46.7714 35.9715 46.9077 36.1557 47.0577C37.8226 45.9831 37.8135 47.4257 38.896 46.9827C39.7283 46.5488 40.5561 46.0058 41.5453 46.1603C40.5833 46.4375 40.5447 47.2099 39.9807 47.8619C39.8852 47.9619 39.8397 48.0755 39.9511 48.2413C41.9478 48.0732 42.1115 47.4098 43.7239 46.5965C44.9269 45.8627 46.1253 47.6415 47.1669 46.6283C47.3966 46.4079 47.7104 46.4829 47.9946 46.4534C47.6308 44.5154 43.6306 46.8078 43.6943 44.2087C44.9815 43.3341 44.6858 41.6597 44.7722 40.3079C46.2527 41.1281 47.8991 41.6052 49.35 42.389C50.0823 43.5703 51.2307 45.1311 52.7612 45.0289C52.8021 44.9108 52.8385 44.8062 52.8817 44.6858C53.3456 44.7654 53.9414 45.0721 54.1961 44.4859C54.8897 45.2106 55.9085 45.1743 56.8159 44.988C57.4867 44.4427 55.5538 43.6658 55.2945 43.1046L55.2968 43.1069ZM95.9145 21.5309C95.9145 18.8864 94.8866 16.4033 93.0196 14.5381C91.1526 12.6728 88.667 11.646 86.0176 11.646C83.3683 11.646 80.8827 12.6728 79.0157 14.5381L74.7313 18.8183C73.7307 19.8179 72.9711 20.9925 72.4731 22.3079L72.4435 22.3828L72.3662 22.4056C70.8107 22.8849 69.4394 23.7073 68.291 24.8546L64.0066 29.1349C60.1475 32.9925 60.1475 39.2674 64.0066 43.1228C65.8736 44.988 68.3592 46.0149 71.0063 46.0149C73.6533 46.0149 76.1412 44.988 78.0082 43.1228L82.2926 38.8426C83.2887 37.8475 84.0437 36.6775 84.5417 35.3643L84.5713 35.2894L84.6486 35.2644C86.1768 34.7964 87.5868 33.9467 88.7306 32.8062L93.015 28.526C94.8821 26.6608 95.91 24.1776 95.91 21.5309H95.9145ZM39.7146 39.9058C39.3462 41.3416 39.2257 43.7884 37.3564 43.8589C37.2018 44.6881 37.9317 44.9994 38.5935 44.7336C39.2507 44.4314 39.5623 44.9721 39.7829 45.5105C40.7971 45.6582 42.298 45.172 42.3549 43.9725C40.8403 43.1001 40.3719 41.4416 39.7124 39.9058H39.7146Z" fill="#132D2D"/>
</svg>
