<svg width="37" height="19" viewBox="0 0 37 19" fill="none" xmlns="http://www.w3.org/2000/svg">
<g clip-path="url(#clip0_14_6167)">
<path d="M21.5279 14.3017C21.4257 14.4716 21.1186 14.4828 20.8569 14.3255C20.7228 14.245 20.6191 14.1339 20.5655 14.0132C20.5163 13.9036 20.5155 13.8 20.5625 13.7217C20.6162 13.6322 20.7272 13.5868 20.8584 13.5868C20.9762 13.5868 21.1104 13.6233 21.2342 13.6978C21.4958 13.8551 21.6308 14.1317 21.5286 14.3017H21.5279ZM36.67 9.32114C36.67 14.459 32.4894 18.6396 27.3515 18.6396H9.31846C4.18063 18.6396 0 14.4597 0 9.32114C0 4.18257 4.18063 0.00268555 9.31846 0.00268555H27.3515C32.4901 0.00268555 36.67 4.18332 36.67 9.32114ZM17.9585 13.9945C18.1054 13.8164 17.427 13.3147 17.2884 13.1305C17.0066 12.8249 17.0051 12.3851 16.815 12.028C16.3498 10.95 15.8153 9.88025 15.0676 8.96779C14.2774 7.9696 13.3023 7.14361 12.4457 6.20654C11.8098 5.55276 11.6399 4.62166 11.0785 3.91867C10.3047 2.77586 7.85807 2.46425 7.4995 4.07821C7.50099 4.1289 7.48533 4.16095 7.44135 4.19301C7.24305 4.33689 7.06637 4.50164 6.91802 4.70068C6.55498 5.20611 6.49907 6.06341 6.95232 6.51741C6.96723 6.27811 6.97543 6.05223 7.16478 5.88077C7.51515 6.18194 8.04444 6.2878 8.45072 6.06341C9.34828 7.34489 9.12464 9.11763 9.83731 10.4983C10.0341 10.8248 10.2324 11.158 10.4851 11.4443C10.6901 11.7633 11.3983 12.1398 11.4401 12.435C11.4475 12.9419 11.3879 13.4958 11.7204 13.92C11.8769 14.2376 11.4923 14.5566 11.1822 14.5171C10.7796 14.5723 10.2883 14.2465 9.93571 14.447C9.81122 14.582 9.56745 14.4329 9.4601 14.62C9.42283 14.7169 9.22155 14.8533 9.34157 14.9465C9.47501 14.8451 9.59876 14.7393 9.77842 14.7997C9.75158 14.9458 9.86713 14.9666 9.95882 15.0091C9.95584 15.1083 9.89769 15.2097 9.97373 15.2939C10.0624 15.2044 10.1154 15.0777 10.2563 15.0404C10.7244 15.6644 11.2008 14.409 12.2139 14.9741C12.0081 14.9644 11.8255 14.9897 11.6868 15.159C11.6525 15.197 11.6235 15.2417 11.6839 15.2909C12.2303 14.9383 12.2273 15.4117 12.5822 15.2663C12.855 15.1239 13.1264 14.9458 13.4506 14.9965C13.1353 15.0874 13.1226 15.3409 12.9377 15.5548C12.9064 15.5876 12.8915 15.6249 12.9281 15.6793C13.5826 15.6241 13.6363 15.4065 14.1648 15.1396C14.5592 14.8988 14.952 15.4825 15.2935 15.15C15.3687 15.0777 15.4716 15.1023 15.5648 15.0926C15.4455 14.4567 14.1342 15.2089 14.1551 14.3561C14.5771 14.0691 14.4801 13.5197 14.5085 13.0761C14.9938 13.3452 15.5335 13.5018 16.0091 13.759C16.2492 14.1466 16.6256 14.6588 17.1273 14.6252C17.1407 14.5864 17.1527 14.5522 17.1668 14.5126C17.3189 14.5387 17.5142 14.6394 17.5977 14.447C17.8251 14.6848 18.1591 14.6729 18.4565 14.6118C18.6764 14.4329 18.0428 14.1779 17.9578 13.9938L17.9585 13.9945ZM24.761 10.9895L23.7636 9.64319C22.8928 10.6391 22.3114 11.1245 22.3009 11.1334C22.2957 11.1386 21.7403 11.6791 21.2342 12.1428C20.7377 12.5975 20.3456 12.9576 20.1458 13.3512C20.0906 13.46 19.9706 13.8611 20.1391 14.2622C20.2688 14.5723 20.5334 14.7929 20.9263 14.9182C21.0441 14.9555 21.1566 14.9719 21.264 14.9719C21.9714 14.9719 22.4359 14.2622 22.4388 14.2562C22.4448 14.248 23.0464 13.3885 23.7792 12.3031C24.023 11.9422 24.3018 11.5606 24.761 10.9888V10.9895ZM29.4508 14.09C29.4508 13.8917 29.3785 13.7001 29.2473 13.5517L29.1235 13.4116C28.3758 12.564 26.4562 10.3879 25.7093 9.54255C24.7714 8.48099 23.7226 7.12795 23.6353 7.01464L23.5094 6.75372V6.29451C23.5094 6.12603 23.4758 5.96128 23.4109 5.80622L23.1441 5.17257C23.1403 5.16362 23.1388 5.15318 23.1403 5.14349L23.1508 5.05553C23.1523 5.04136 23.159 5.02869 23.1702 5.019C23.3781 4.83561 24.152 4.24072 25.3499 4.29067C25.5065 4.29738 25.5341 4.21165 25.5385 4.17512C25.5602 3.99919 25.1583 3.79194 24.7841 3.71516C24.2697 3.61005 22.9025 3.33124 21.8089 4.04913L21.8007 4.0551C21.094 4.64551 20.526 5.09653 20.52 5.101L20.5073 5.11367C20.4991 5.12336 20.2993 5.36266 20.3478 5.66756C20.3791 5.86586 20.2762 5.93668 20.2703 5.94041C20.2643 5.94414 20.1241 6.0321 19.9795 5.93295C19.8043 5.80175 19.5002 6.02688 19.4383 6.07608L18.9791 6.47119L18.9701 6.48013C18.9619 6.48982 18.7651 6.72018 19.0283 7.08993C19.2557 7.40974 19.3362 7.51635 19.5337 7.76235C19.7343 8.01134 20.0958 8.32668 20.1152 8.34308C20.1241 8.35053 20.3448 8.51752 20.649 8.28493C20.8987 8.09334 21.0992 7.92039 21.0992 7.92039C21.1156 7.90697 21.2603 7.7877 21.267 7.61177C21.2692 7.56107 21.267 7.51709 21.267 7.47684C21.2632 7.35309 21.2625 7.31656 21.3557 7.25692C21.4004 7.25692 21.5376 7.30687 21.6554 7.3665C21.668 7.37396 21.9625 7.53946 22.2301 7.52753C22.3986 7.54989 22.585 7.74148 22.6491 7.81975C22.655 7.82572 23.2246 8.42359 24.0267 9.47248C24.1795 9.67152 24.7409 10.4192 24.8944 10.628C25.1509 10.9768 25.5393 11.5046 25.9568 12.0734C26.6799 13.0582 27.4909 14.1623 27.8592 14.6588C27.9815 14.8235 28.1596 14.9353 28.3609 14.9741L28.4973 15.0002C28.5495 15.0099 28.6017 15.0151 28.6539 15.0151C28.8954 15.0151 29.1243 14.9092 29.2756 14.7214L29.2838 14.7109C29.3927 14.573 29.4523 14.3963 29.4523 14.2145V14.09H29.4508ZM30.0927 5.24786L29.9339 5.08907C29.8877 5.04285 29.8228 5.01527 29.7572 5.02049C29.6916 5.02347 29.6297 5.05329 29.5872 5.10398L28.5883 6.28556C28.56 6.31911 28.5197 6.33998 28.4765 6.34446L28.1209 6.38024C28.0754 6.38471 28.0299 6.37055 27.9949 6.34147L27.4268 5.86064C27.3903 5.82933 27.3687 5.7846 27.3672 5.73689L27.359 5.45212C27.3575 5.41112 27.3717 5.37086 27.3978 5.33955L28.3691 4.16915C28.4422 4.08119 28.4414 3.95371 28.3676 3.86575L28.27 3.7502C28.2059 3.6749 28.1 3.64732 28.0076 3.68236C27.778 3.76958 27.1995 3.99546 26.7812 4.22208C26.1901 4.54115 25.7793 5.04733 25.7085 5.54307C25.6563 5.90612 25.6779 6.50473 25.6958 6.82902C25.7025 6.95649 25.6742 7.08397 25.6123 7.19803C25.5363 7.33967 25.4021 7.56629 25.1979 7.83914C25.0935 7.98301 25.0279 8.03594 24.9377 8.14255L26.0365 9.43446C26.3012 9.12583 26.533 8.89175 26.735 8.66587C27.104 8.25511 27.2188 8.25139 27.526 8.24095C27.7153 8.23424 27.9748 8.22604 28.3855 8.12316C29.5067 7.84286 29.8616 6.62923 29.8765 6.57555L30.1553 5.47299C30.1754 5.39323 30.1516 5.30675 30.0934 5.24861L30.0927 5.24786ZM12.8513 12.9442C12.7305 13.4153 12.691 14.2182 12.0782 14.2413C12.0275 14.5134 12.2668 14.6155 12.4838 14.5283C12.6992 14.4292 12.8013 14.6066 12.8736 14.7833C13.2061 14.8317 13.6981 14.6722 13.7168 14.2786C13.2203 13.9923 13.0667 13.4481 12.8505 12.9442H12.8513Z" fill="#1C3C3C"/>
</g>
<defs>
<clipPath id="clip0_14_6167">
<rect width="36.67" height="18.6369" fill="white" transform="translate(0 0.00268555)"/>
</clipPath>
</defs>
</svg>
