<svg width="32" height="32" viewBox="0 0 32 32" fill="none" xmlns="http://www.w3.org/2000/svg">
<rect width="32" height="32" rx="2" fill="#1C3C3C"/>
<path d="M23.8 12.9787C24.3106 13.4898 24.3106 14.3216 23.8 14.8327L22.6562 15.9591L22.6446 15.8945C22.5611 15.4316 22.3412 15.0115 22.0092 14.6792C21.7592 14.4295 21.4638 14.2448 21.1308 14.1306C20.9241 14.3385 20.8104 14.611 20.8104 14.8977C20.8104 14.9559 20.8157 15.0163 20.8263 15.0766C21.0097 15.1427 21.172 15.2448 21.3084 15.3813C21.8189 15.8924 21.8189 16.7241 21.3084 17.2352L20.3125 18.232C20.0572 18.4876 19.7221 18.6151 19.3865 18.6151C19.0509 18.6151 18.7158 18.4876 18.4605 18.232C17.9499 17.721 17.9499 16.8892 18.4605 16.3781L19.6043 15.2522L19.6159 15.3168C19.6989 15.7787 19.9188 16.1988 20.2518 16.5316C20.5023 16.7823 20.7798 16.949 21.1123 17.0628L21.1736 17.0014C21.3596 16.8152 21.4616 16.5675 21.4616 16.3035C21.4616 16.2448 21.4564 16.1861 21.4463 16.1284C21.2544 16.0649 21.0964 15.9744 20.9526 15.8305C20.7454 15.6231 20.6165 15.358 20.5805 15.0644C20.5779 15.0432 20.5763 15.0226 20.5742 15.0014C20.5456 14.6189 20.6836 14.2454 20.9526 13.9766L21.9484 12.9798C22.1953 12.7327 22.5241 12.5962 22.8745 12.5962C23.2249 12.5962 23.5537 12.7322 23.8005 12.9798L23.8 12.9787ZM29 15.6136C29 19.2606 26.0358 22.2272 22.393 22.2272H9.60703C5.96418 22.2272 3 19.2606 3 15.6136C3 11.9666 5.96418 9 9.60703 9H22.393C26.0364 9 29 11.9671 29 15.6136ZM15.7331 18.9304C15.8372 18.804 15.3562 18.4479 15.2579 18.3172C15.0581 18.1003 15.057 17.7881 14.9223 17.5347C14.5924 16.7697 14.2135 16.0104 13.6833 15.3628C13.123 14.6544 12.4317 14.0681 11.8244 13.4031C11.3735 12.9391 11.253 12.2782 10.855 11.7793C10.3063 10.9682 8.57158 10.747 8.31734 11.8925C8.3184 11.9285 8.3073 11.9513 8.27611 11.974C8.13552 12.0761 8.01025 12.193 7.90506 12.3343C7.64765 12.693 7.60801 13.3015 7.92938 13.6237C7.93995 13.4539 7.94576 13.2935 8.08002 13.1719C8.32844 13.3851 8.70372 13.4607 8.99179 13.3015C9.62818 14.211 9.46961 15.4692 9.97491 16.449C10.1145 16.6808 10.2551 16.9173 10.4342 17.1204C10.5796 17.3469 11.0817 17.6141 11.1113 17.8236C11.1166 18.1834 11.0743 18.5765 11.3101 18.8775C11.4211 19.1029 11.1483 19.3294 10.9284 19.3013C10.643 19.3405 10.2947 19.1093 10.0447 19.2516C9.95641 19.3474 9.78357 19.2415 9.70746 19.3743C9.68103 19.4431 9.53832 19.54 9.62342 19.6061C9.71803 19.5341 9.80577 19.459 9.93316 19.5019C9.91413 19.6056 9.99606 19.6204 10.0611 19.6505C10.059 19.7209 10.0177 19.7929 10.0716 19.8526C10.1345 19.7892 10.1721 19.6992 10.272 19.6728C10.6039 20.1156 10.9417 19.2246 11.66 19.6257C11.5141 19.6183 11.3846 19.6368 11.2863 19.7569C11.262 19.7839 11.2414 19.8156 11.2842 19.8505C11.6716 19.6003 11.6695 19.9362 11.9211 19.8331C12.1145 19.732 12.3069 19.6056 12.5369 19.6415C12.3133 19.7061 12.3043 19.886 12.1732 20.0378C12.151 20.0611 12.1404 20.0876 12.1663 20.1262C12.6304 20.087 12.6685 19.9325 13.0432 19.7431C13.3228 19.5722 13.6014 19.9865 13.8435 19.7505C13.8968 19.6992 13.9698 19.7167 14.0359 19.7098C13.9513 19.2585 13.0216 19.7923 13.0363 19.1871C13.3355 18.9834 13.2668 18.5934 13.2869 18.2786C13.631 18.4696 14.0137 18.5807 14.3509 18.7633C14.5211 19.0384 14.788 19.4019 15.1437 19.3781C15.1532 19.3505 15.1617 19.3262 15.1717 19.2982C15.2796 19.3167 15.4181 19.3881 15.4773 19.2516C15.6385 19.4204 15.8753 19.4119 16.0862 19.3685C16.2421 19.2415 15.7928 19.0606 15.7325 18.9299L15.7331 18.9304ZM25.1737 13.9057C25.1737 13.2898 24.9348 12.7115 24.5009 12.2772C24.0669 11.8428 23.4892 11.6036 22.8734 11.6036C22.2577 11.6036 21.6799 11.8428 21.246 12.2772L20.2502 13.274C20.0176 13.5068 19.8411 13.7803 19.7253 14.0866L19.7184 14.1041L19.7005 14.1094C19.3389 14.221 19.0202 14.4126 18.7533 14.6798L17.7575 15.6766C16.8605 16.5749 16.8605 18.0363 17.7575 18.9341C18.1914 19.3685 18.7691 19.6077 19.3844 19.6077C19.9996 19.6077 20.5779 19.3685 21.0118 18.9341L22.0076 17.9373C22.2392 17.7056 22.4146 17.4331 22.5304 17.1273L22.5373 17.1099L22.5552 17.104C22.9104 16.995 23.2381 16.7972 23.504 16.5316L24.4998 15.5348C24.9338 15.1004 25.1727 14.5221 25.1727 13.9057H25.1737ZM12.1114 18.185C12.0257 18.5193 11.9977 19.0892 11.5632 19.1056C11.5273 19.2987 11.697 19.3712 11.8508 19.3093C12.0035 19.2389 12.076 19.3648 12.1272 19.4902C12.363 19.5246 12.7118 19.4114 12.725 19.132C12.373 18.9289 12.2641 18.5426 12.1108 18.185H12.1114Z" fill="white"/>
</svg>
