<svg width="63" height="32" viewBox="0 0 63 32" fill="none" xmlns="http://www.w3.org/2000/svg">
<path d="M50.4064 9.6256C51.6438 10.8621 51.6438 12.8742 50.4064 14.1107L47.6345 16.8358L47.6063 16.6797C47.4039 15.5597 46.8711 14.5434 46.0667 13.7395C45.4608 13.1354 44.7448 12.6886 43.9378 12.4122C43.437 12.9152 43.1616 13.5744 43.1616 14.2682C43.1616 14.409 43.1744 14.5549 43.2 14.7008C43.6445 14.8608 44.0377 15.1078 44.3682 15.4381C45.6055 16.6746 45.6055 18.6867 44.3682 19.9232L41.9549 22.3347C41.3363 22.953 40.5242 23.2614 39.7108 23.2614C38.8974 23.2614 38.0853 22.953 37.4666 22.3347C36.2293 21.0982 36.2293 19.0861 37.4666 17.8496L40.2385 15.1258L40.2667 15.2819C40.4678 16.3994 41.0007 17.4157 41.8076 18.2208C42.4148 18.8275 43.0873 19.2307 43.893 19.5059L44.0415 19.3574C44.4924 18.9069 44.7396 18.3078 44.7396 17.6691C44.7396 17.527 44.7268 17.385 44.7025 17.2454C44.2375 17.0918 43.8545 16.873 43.5061 16.5248C43.004 16.023 42.6915 15.3818 42.6044 14.6714C42.598 14.6202 42.5941 14.5702 42.589 14.519C42.5198 13.5936 42.8541 12.6899 43.5061 12.0397L45.9194 9.62816C46.5176 9.0304 47.3143 8.70016 48.1635 8.70016C49.0128 8.70016 49.8095 9.02912 50.4077 9.62816L50.4064 9.6256ZM63.008 16C63.008 24.823 55.8246 32 46.9966 32H16.0114C7.18335 32 0 24.823 0 16C0 7.17696 7.18335 0 16.0114 0H46.9966C55.8259 0 63.008 7.17824 63.008 16ZM30.8571 24.0243C31.1095 23.7184 29.9438 22.857 29.7056 22.5408C29.2214 22.016 29.2189 21.2608 28.8922 20.6477C28.0929 18.7968 27.1745 16.96 25.8898 15.3933C24.532 13.6794 22.8566 12.2611 21.3848 10.6522C20.2922 9.5296 20.0001 7.93088 19.0356 6.72384C17.706 4.7616 13.5021 4.22656 12.886 6.99776C12.8885 7.0848 12.8616 7.13984 12.786 7.19488C12.4453 7.44192 12.1418 7.7248 11.8869 8.06656C11.263 8.9344 11.167 10.4064 11.9458 11.1859C11.9714 10.775 11.9855 10.3872 12.3108 10.0928C12.9129 10.6086 13.8223 10.7917 14.5204 10.4064C16.0626 12.6067 15.6783 15.6506 16.9029 18.0211C17.2411 18.5818 17.5818 19.1539 18.016 19.6454C18.3683 20.1933 19.5851 20.8397 19.6569 21.3466C19.6697 22.217 19.5672 23.168 20.1385 23.8963C20.4075 24.4416 19.7465 24.9894 19.2137 24.9216C18.522 25.0163 17.6778 24.457 17.072 24.8013C16.8581 25.033 16.4392 24.777 16.2548 25.0982C16.1907 25.2646 15.8449 25.4989 16.0511 25.6589C16.2804 25.4848 16.493 25.303 16.8017 25.4067C16.7556 25.6576 16.9541 25.6934 17.1117 25.7664C17.1066 25.9366 17.0067 26.1107 17.1373 26.2554C17.2897 26.1018 17.3807 25.8842 17.6228 25.8202C18.4272 26.8915 19.2457 24.736 20.9864 25.7062C20.6329 25.6883 20.3191 25.7331 20.0808 26.0237C20.0219 26.089 19.972 26.1658 20.0757 26.2502C21.0146 25.6448 21.0095 26.4576 21.6192 26.208C22.088 25.9635 22.5543 25.6576 23.1115 25.7446C22.5696 25.9008 22.5479 26.336 22.2302 26.7034C22.1764 26.7597 22.1508 26.8237 22.2136 26.9171C23.3382 26.8224 23.4304 26.4486 24.3386 25.9904C25.0162 25.577 25.6912 26.5792 26.2779 26.0083C26.4073 25.8842 26.584 25.9264 26.7441 25.9098C26.5392 24.8179 24.2861 26.1094 24.3219 24.6451C25.0469 24.1523 24.8804 23.209 24.9291 22.4474C25.763 22.9094 26.6903 23.1782 27.5076 23.6198C27.92 24.2854 28.5669 25.1648 29.4289 25.1072C29.452 25.0406 29.4725 24.9818 29.4968 24.9139C29.7581 24.9587 30.0937 25.1315 30.2372 24.8013C30.6279 25.2096 31.2017 25.1891 31.7128 25.0842C32.0907 24.777 31.0019 24.3392 30.8559 24.023L30.8571 24.0243ZM53.7355 11.8682C53.7355 10.3782 53.1565 8.9792 52.1049 7.92832C51.0533 6.87744 49.6532 6.29888 48.161 6.29888C46.6687 6.29888 45.2687 6.87744 44.217 7.92832L41.8038 10.3398C41.2402 10.903 40.8124 11.5648 40.5319 12.3059L40.5152 12.3482L40.4717 12.361C39.5955 12.631 38.8231 13.0944 38.1763 13.7408L35.763 16.1523C33.5893 18.3258 33.5893 21.8611 35.763 24.0333C36.8147 25.0842 38.2147 25.6627 39.7057 25.6627C41.1967 25.6627 42.598 25.0842 43.6496 24.0333L46.0628 21.6218C46.6239 21.0611 47.0491 20.4019 47.3297 19.6621L47.3463 19.6198L47.3899 19.6058C48.2506 19.3421 49.0448 18.8634 49.6891 18.2208L52.1023 15.8093C53.1539 14.7584 53.7329 13.3594 53.7329 11.8682H53.7355ZM22.0803 22.2208C21.8728 23.0298 21.8049 24.4083 20.752 24.448C20.6649 24.9152 21.0761 25.0906 21.4488 24.9408C21.819 24.7706 21.9945 25.0752 22.1188 25.3786C22.6901 25.4618 23.5355 25.1878 23.5675 24.512C22.7144 24.0205 22.4505 23.0861 22.0791 22.2208H22.0803Z" fill="#782730"/>
</svg>
