<svg width="63" height="32" viewBox="0 0 63 32" fill="none" xmlns="http://www.w3.org/2000/svg">
<path d="M36.9564 24.5517C36.7811 24.8435 36.2538 24.8627 35.8046 24.5926C35.5743 24.4544 35.3964 24.2637 35.3042 24.0563C35.2198 23.8682 35.2185 23.6902 35.2991 23.5558C35.3913 23.4022 35.5819 23.3242 35.8072 23.3242C36.0094 23.3242 36.2397 23.3869 36.4522 23.5149C36.9014 23.785 37.133 24.2598 36.9577 24.5517H36.9564ZM62.9505 16C62.9505 24.8218 55.7737 32 46.9537 32H15.9968C7.17679 32 0 24.823 0 16C0 7.17696 7.17679 0 15.9968 0H46.9537C55.775 0 62.9505 7.17824 62.9505 16ZM30.829 24.0243C31.0811 23.7184 29.9165 22.857 29.6785 22.5408C29.1947 22.016 29.1922 21.2608 28.8659 20.6477C28.0673 18.7968 27.1497 16.96 25.8661 15.3933C24.5096 13.6794 22.8357 12.2611 21.3653 10.6522C20.2737 9.5296 19.9819 7.93088 19.0182 6.72384C17.6899 4.7616 13.4898 4.22656 12.8742 6.99776C12.8768 7.0848 12.8499 7.13984 12.7744 7.19488C12.434 7.44192 12.1307 7.7248 11.876 8.06656C11.2528 8.9344 11.1568 10.4064 11.9349 11.1859C11.9605 10.775 11.9745 10.3872 12.2996 10.0928C12.9011 10.6099 13.8097 10.7917 14.5072 10.4064C16.048 12.6067 15.664 15.6506 16.8875 18.0211C17.2253 18.5818 17.5657 19.1539 17.9996 19.6454C18.3515 20.1933 19.5673 20.8397 19.6389 21.3466C19.6517 22.217 19.5493 23.168 20.1201 23.8963C20.3888 24.4416 19.7285 24.9894 19.1961 24.9216C18.5051 25.0163 17.6617 24.457 17.0564 24.8013C16.8427 25.033 16.4242 24.777 16.2399 25.0982C16.1759 25.2646 15.8304 25.4989 16.0364 25.6589C16.2655 25.4848 16.478 25.303 16.7864 25.4067C16.7403 25.6576 16.9387 25.6934 17.0961 25.7664C17.091 25.9366 16.9911 26.1107 17.1217 26.2554C17.274 26.1018 17.3648 25.8842 17.6067 25.8202C18.4104 26.8915 19.2281 24.736 20.9673 25.7062C20.6141 25.6896 20.3005 25.7331 20.0625 26.0237C20.0036 26.089 19.9537 26.1658 20.0574 26.2502C20.9954 25.6448 20.9903 26.4576 21.5995 26.208C22.0679 25.9635 22.5337 25.6576 23.0904 25.7446C22.549 25.9008 22.5273 26.336 22.2099 26.7034C22.1562 26.7597 22.1306 26.8237 22.1933 26.9171C23.3169 26.8224 23.409 26.4486 24.3164 25.9904C24.9934 25.577 25.6678 26.5792 26.2539 26.0083C26.3832 25.8842 26.5598 25.9264 26.7197 25.9098C26.515 24.8179 24.2639 26.1094 24.2997 24.6451C25.0241 24.1523 24.8577 23.209 24.9063 22.4474C25.7394 22.9094 26.666 23.1782 27.4825 23.6198C27.8945 24.2854 28.5408 25.1648 29.4021 25.1072C29.4251 25.0406 29.4456 24.9818 29.4699 24.9139C29.731 24.9587 30.0662 25.1315 30.2096 24.8013C30.5999 25.2096 31.1732 25.1891 31.6838 25.0842C32.0614 24.777 30.9736 24.3392 30.8277 24.023L30.829 24.0243ZM42.5066 18.8646L40.7943 16.553C39.2996 18.263 38.3014 19.0963 38.2835 19.1117C38.2745 19.1206 37.3211 20.0486 36.4522 20.8448C35.5999 21.6256 34.9267 22.2438 34.5837 22.9197C34.489 23.1066 34.283 23.7952 34.5722 24.4838C34.7949 25.0163 35.2492 25.3952 35.9236 25.6102C36.1258 25.6742 36.3191 25.7024 36.5033 25.7024C37.7178 25.7024 38.5151 24.4838 38.5202 24.4736C38.5305 24.4595 39.5632 22.9837 40.8212 21.12C41.2397 20.5005 41.7183 19.8451 42.5066 18.8634V18.8646ZM50.5575 24.1882C50.5575 23.8477 50.4333 23.5187 50.2081 23.264L49.9957 23.0234C48.7121 21.568 45.4168 17.8317 44.1344 16.3802C42.5245 14.5574 40.7239 12.2342 40.5742 12.0397L40.3579 11.5917V10.8032C40.3579 10.5139 40.3003 10.231 40.189 9.9648L39.7309 8.8768C39.7245 8.86144 39.7219 8.84352 39.7245 8.82688L39.7424 8.67584C39.7449 8.65152 39.7565 8.62976 39.7757 8.61312C40.1327 8.29824 41.4611 7.2768 43.5176 7.36256C43.7864 7.37408 43.8337 7.22688 43.8414 7.16416C43.8785 6.86208 43.1887 6.50624 42.5463 6.3744C41.6633 6.19392 39.3162 5.7152 37.4388 6.94784L37.4248 6.95808C36.2116 7.97184 35.2364 8.74624 35.2262 8.75392L35.2044 8.77568C35.1903 8.79232 34.8474 9.2032 34.9305 9.72672C34.9843 10.0672 34.8077 10.1888 34.7975 10.1952C34.7872 10.2016 34.5466 10.3526 34.2984 10.1824C33.9976 9.95712 33.4755 10.3437 33.3693 10.4282L32.5809 11.1066L32.5656 11.1219C32.5515 11.1386 32.2137 11.5341 32.6654 12.169C33.0557 12.7181 33.1939 12.9011 33.5331 13.3235C33.8773 13.751 34.498 14.2925 34.5313 14.3206C34.5466 14.3334 34.9254 14.6202 35.4476 14.2208C35.8763 13.8918 36.2205 13.5949 36.2205 13.5949C36.2487 13.5718 36.497 13.367 36.5085 13.065C36.5123 12.9779 36.5085 12.9024 36.5085 12.8333C36.5021 12.6208 36.5008 12.5581 36.6608 12.4557C36.7375 12.4557 36.973 12.5414 37.1752 12.6438C37.197 12.6566 37.7025 12.9408 38.1619 12.9203C38.4511 12.9587 38.771 13.2877 38.8811 13.4221C38.8913 13.4323 39.8691 14.4589 41.2461 16.2598C41.5084 16.6016 42.4721 17.8854 42.7357 18.2438C43.1759 18.8429 43.8427 19.7491 44.5593 20.7258C45.8007 22.4166 47.193 24.3123 47.8252 25.1648C48.0351 25.4477 48.341 25.6397 48.6865 25.7062L48.9207 25.751C49.0103 25.7677 49.0998 25.7766 49.1894 25.7766C49.6041 25.7766 49.9969 25.5949 50.2567 25.2723L50.2708 25.2544C50.4577 25.0176 50.56 24.7142 50.56 24.4019V24.1882H50.5575ZM51.6593 9.00608L51.3867 8.73344C51.3074 8.65408 51.1961 8.60672 51.0834 8.61568C50.9708 8.6208 50.8646 8.672 50.7917 8.75904L49.0768 10.7878C49.0282 10.8454 48.9591 10.8813 48.8848 10.889L48.2744 10.9504C48.1964 10.9581 48.1183 10.9338 48.0581 10.8838L47.083 10.0582C47.0203 10.0045 46.9832 9.92768 46.9806 9.84576L46.9665 9.3568C46.964 9.2864 46.9883 9.21728 47.0331 9.16352L48.7006 7.15392C48.826 7.00288 48.8247 6.784 48.698 6.63296L48.5304 6.43456C48.4203 6.30528 48.2386 6.25792 48.0799 6.31808C47.6857 6.46784 46.6927 6.85568 45.9747 7.2448C44.9599 7.79264 44.2547 8.66176 44.1332 9.51296C44.0436 10.1363 44.0807 11.1642 44.1114 11.721C44.1229 11.9398 44.0743 12.1587 43.9681 12.3546C43.8375 12.5978 43.6072 12.9869 43.2565 13.4554C43.0774 13.7024 42.9648 13.7933 42.8099 13.9763L44.6963 16.1946C45.1506 15.6646 45.5486 15.2627 45.8954 14.8749C46.5288 14.1696 46.7259 14.1632 47.2532 14.1453C47.5782 14.1338 48.0236 14.1197 48.7287 13.943C50.6535 13.4618 51.2626 11.3779 51.2882 11.2858L51.7668 9.39264C51.8014 9.25568 51.7604 9.1072 51.6606 9.00736L51.6593 9.00608ZM22.0615 22.2208C21.8541 23.0298 21.7863 24.4083 20.7344 24.448C20.6474 24.9152 21.0581 25.0906 21.4306 24.9408C21.8004 24.7706 21.9757 25.0752 22.0999 25.3786C22.6706 25.4618 23.5153 25.1878 23.5472 24.512C22.6949 24.0205 22.4313 23.0861 22.0602 22.2208H22.0615Z" fill="#D65622"/>
</svg>
