<svg width="72" height="39" viewBox="0 0 72 39" fill="none" xmlns="http://www.w3.org/2000/svg">
<path d="M71.1123 19.1804C71.1123 29.7573 63.0722 38.3609 53.1914 38.3609H18.5108C8.62992 38.3609 0.589844 29.7573 0.589844 19.1804C0.589844 8.60354 8.62992 -4.57298e-05 18.5108 -4.57298e-05H53.1914C63.0737 -4.57298e-05 71.1123 8.60507 71.1123 19.1804Z" fill="#076699"/>
<path d="M51.1826 3.18042C59.8827 3.18065 66.9599 10.2977 66.96 19.0457C66.96 27.7936 59.8827 34.9107 51.1826 34.9109H20.6494C11.9491 34.9109 4.87109 27.7938 4.87109 19.0457C4.87114 10.2976 11.9492 3.18042 20.6494 3.18042H51.1826ZM23.6328 9.85132C22.3213 7.90625 18.1807 7.37499 17.5732 10.1228C17.5757 10.2075 17.5481 10.2623 17.4736 10.3171C17.1377 10.564 16.8392 10.8442 16.5879 11.1833C15.9733 12.0437 15.8783 13.5021 16.6445 14.2751C16.6719 13.8662 16.6848 13.482 17.0059 13.1902C17.5982 13.7014 18.4967 13.8833 19.1836 13.5017C20.7017 15.6838 20.3233 18.7018 21.5303 21.0535C21.8637 21.6095 22.2 22.1776 22.6279 22.6638C22.9763 23.205 24.1754 23.8466 24.2451 24.3503C24.2575 25.2131 24.1583 26.1556 24.7207 26.8787C24.9869 27.4198 24.3346 27.9636 23.8096 27.8962C23.1277 27.9909 22.2965 27.4346 21.6992 27.7761C21.4877 28.0055 21.0742 27.7518 20.8926 28.071C20.8274 28.2356 20.4876 28.4673 20.6914 28.6267C20.9178 28.4547 21.1271 28.2754 21.4307 28.3777C21.3861 28.6267 21.5821 28.6619 21.7363 28.7341C21.7313 28.9012 21.6324 29.0729 21.7617 29.2175C21.9109 29.0655 22.0006 28.8492 22.2393 28.7869C23.033 29.8485 23.8393 27.7123 25.5537 28.6746C25.2056 28.6572 24.8949 28.6992 24.6611 28.988C24.6039 29.0529 24.5542 29.1279 24.6562 29.2126C25.5816 28.6122 25.5771 29.4175 26.1768 29.1707C26.6396 28.9288 27.0976 28.6244 27.6475 28.7117C27.1124 28.8663 27.0919 29.2978 26.7783 29.6619C26.7237 29.7167 26.6987 29.7817 26.7607 29.8738C27.8682 29.7815 27.9586 29.4097 28.8545 28.9558C29.5213 28.5449 30.1884 29.5394 30.7656 28.9734C30.895 28.8514 31.0689 28.8931 31.2256 28.8757C31.0235 27.7943 28.8041 29.0729 28.8389 27.6218C29.5531 27.133 29.3892 26.1978 29.4365 25.4421C30.2578 25.901 31.1712 26.1653 31.9775 26.6042C32.3857 27.2626 33.0225 28.1352 33.8711 28.0779C33.8934 28.0107 33.9137 27.9536 33.9385 27.8865C34.1948 27.9314 34.5261 28.1007 34.668 27.7742C35.0512 28.1778 35.6185 28.1582 36.1211 28.0535L36.126 28.0554C36.4988 27.7512 35.4265 27.3173 35.2822 27.0056C35.5306 26.7014 34.3818 25.8493 34.1475 25.5349C33.6697 25.0137 33.6667 24.2655 33.3457 23.657C32.5568 21.8216 31.6534 20.0006 30.3867 18.447C29.0479 16.749 27.398 15.3427 25.9473 13.7468C24.8722 12.6346 24.5835 11.0483 23.6328 9.85132ZM48.0859 23.4421C47.679 23.3915 47.2651 23.4369 46.8789 23.575C46.493 23.7131 46.1446 23.94 45.8623 24.2371C45.58 24.5343 45.371 24.8943 45.2529 25.2869C45.1349 25.6795 45.11 26.0951 45.1816 26.4988C45.2533 26.9024 45.4191 27.284 45.665 27.6121C45.911 27.94 46.2312 28.2064 46.5986 28.3884C46.9661 28.5703 47.3722 28.663 47.7822 28.6599C48.3418 28.6555 48.8862 28.472 49.334 28.1365C49.7815 27.8009 50.1104 27.3303 50.2715 26.7947C50.4324 26.259 50.417 25.6856 50.2285 25.1589C50.04 24.6322 49.688 24.179 49.2236 23.8669C48.8832 23.6383 48.4929 23.4929 48.0859 23.4421ZM43.3379 15.9919C43.0615 15.892 42.7695 15.839 42.4756 15.8357C41.7829 15.8359 41.1187 16.1111 40.6289 16.5994C40.1392 17.0877 39.8634 17.7497 39.8633 18.4402C39.8633 19.1308 40.139 19.7936 40.6289 20.282C41.1187 20.7702 41.783 21.0445 42.4756 21.0447C42.7696 21.0414 43.0615 20.9884 43.3379 20.8884L44.8467 23.1287L45.9307 22.3992L44.4355 20.1589C44.7038 19.8518 44.8962 19.4862 44.9971 19.0916H49.0078V17.7898H44.9971C44.8962 17.395 44.704 17.0287 44.4355 16.7214L45.9443 14.4822L44.8467 13.7527L43.3379 15.9919ZM49.6621 14.5183L51.1729 16.7283C50.7627 17.2025 50.5333 17.8091 50.5332 18.4402C50.5333 19.1347 50.8095 19.8016 51.3008 20.2927C51.792 20.7836 52.4587 21.0592 53.1533 21.0593C53.8479 21.0592 54.5146 20.7836 55.0059 20.2927C55.4971 19.8016 55.7734 19.1347 55.7734 18.4402C55.7734 17.7457 55.497 17.0797 55.0059 16.5886C54.5146 16.0976 53.8481 15.8211 53.1533 15.821C52.8283 15.8211 52.5095 15.8832 52.2119 15.9978L50.709 13.7996L49.6621 14.5183ZM48.0859 8.23218C47.679 8.18152 47.265 8.22791 46.8789 8.36597C46.493 8.50411 46.1446 8.73096 45.8623 9.02808C45.5799 9.32544 45.371 9.68518 45.2529 10.0779C45.1349 10.4706 45.11 10.886 45.1816 11.2898C45.2534 11.6934 45.4191 12.0751 45.665 12.4031C45.911 12.731 46.2313 12.9965 46.5986 13.1785C46.9661 13.3604 47.3722 13.4541 47.7822 13.4509C48.3418 13.4465 48.8862 13.263 49.334 12.9275C49.7816 12.5919 50.1104 12.1214 50.2715 11.5857C50.4326 11.0499 50.417 10.4758 50.2285 9.94897C50.04 9.42254 49.6878 8.96996 49.2236 8.65796C48.8832 8.42932 48.4929 8.28295 48.0859 8.23218Z" fill="white"/>
</svg>
