<svg width="63" height="33" viewBox="0 0 63 33" fill="none" xmlns="http://www.w3.org/2000/svg">
<path d="M45.7562 11.439C46.1337 11.4091 46.5076 11.5303 46.7956 11.7761C47.0837 12.022 47.2623 12.3724 47.2922 12.75C47.3221 13.1276 47.2009 13.5017 46.9552 13.7899C46.7094 14.0781 46.3592 14.2567 45.9817 14.2866C45.6042 14.3166 45.2304 14.1953 44.9423 13.9495C44.6543 13.7037 44.4757 13.3535 44.4457 12.9759C44.4158 12.5983 44.537 12.2239 44.7827 11.9357C45.0285 11.6476 45.3788 11.4689 45.7562 11.439Z" fill="#4E598C"/>
<path fill-rule="evenodd" clip-rule="evenodd" d="M46.3871 0.922852C55.1016 0.922888 62.1908 8.04001 62.1909 16.7881C62.1909 25.5362 55.1016 32.6536 46.3871 32.6536H15.8038C7.08928 32.6536 0 25.5362 0 16.7881C9.03956e-05 8.04 7.08933 0.922869 15.8038 0.922852H46.3871ZM18.7927 7.59352C17.479 5.64847 13.331 5.1174 12.7227 7.86542C12.7252 7.9502 12.6979 8.00526 12.6231 8.06013C12.2866 8.307 11.9873 8.58613 11.7356 8.92527C11.1199 9.7856 11.0254 11.2444 11.7931 12.0175C11.8205 11.6086 11.8331 11.2245 12.1546 10.9327C12.7479 11.4439 13.6475 11.6261 14.3355 11.2446C15.8561 13.4267 15.4772 16.4442 16.6861 18.7959C17.0201 19.3519 17.3568 19.9203 17.7855 20.4065C18.1345 20.9477 19.3359 21.5889 19.4057 22.0926C19.4181 22.9554 19.3187 23.8979 19.8819 24.621C20.1486 25.1621 19.4957 25.706 18.9698 25.6388C18.2868 25.7335 17.4541 25.1773 16.8559 25.5188C16.644 25.7482 16.2302 25.4941 16.0482 25.8131C15.9834 25.9777 15.6419 26.2096 15.8462 26.3692C16.073 26.1972 16.2825 26.0176 16.5865 26.1198C16.5417 26.3691 16.7385 26.4043 16.893 26.4766C16.888 26.6436 16.7884 26.8157 16.9179 26.9604C17.0675 26.8083 17.1574 26.5912 17.3966 26.5288C18.1918 27.5912 18.9995 25.4542 20.7169 26.4166C20.368 26.3991 20.0565 26.4417 19.8223 26.7309C19.7649 26.7958 19.7148 26.8707 19.817 26.9554C20.7442 26.3545 20.7394 27.1597 21.34 26.913C21.8036 26.6711 22.2624 26.3669 22.8132 26.4541C22.2775 26.6087 22.2575 27.0401 21.9435 27.4042C21.8887 27.459 21.8637 27.5238 21.926 27.6161C23.0352 27.5238 23.1251 27.1525 24.0224 26.6986C24.6904 26.2872 25.3584 27.2819 25.9368 26.7158C26.0664 26.5937 26.2409 26.6361 26.3979 26.6187C26.196 25.5364 23.9725 26.8156 24.0073 25.3644C24.7227 24.8757 24.5582 23.9403 24.6056 23.1847C25.4282 23.6436 26.3432 23.9078 27.1508 24.3467C27.5596 25.005 28.1976 25.8779 29.0477 25.8205C29.0701 25.7532 29.0901 25.6959 29.115 25.6286C29.3717 25.6735 29.7034 25.843 29.8455 25.5163C30.2293 25.9203 30.7976 25.9003 31.3011 25.7956L31.306 25.7981C31.6798 25.4938 30.6055 25.0601 30.4609 24.7484C30.7102 24.4441 29.5587 23.5912 29.3243 23.277C28.8458 22.7558 28.8431 22.0078 28.5216 21.3994C27.7315 19.564 26.8267 17.7435 25.558 16.1899C24.2169 14.4916 22.5639 13.0851 21.1107 11.4891C20.0338 10.3769 19.7449 8.79053 18.7927 7.59352ZM49.632 7.563C47.0037 7.29149 42.1194 8.42828 39.546 12.9595C39.4708 13.0944 39.396 13.2331 39.3219 13.3822L36.3934 13.6145C35.4896 13.6861 34.6911 14.2296 34.2903 15.0458L32.6719 18.3443C32.5363 18.6202 32.5588 18.948 32.733 19.2028C32.9071 19.4576 33.2048 19.5986 33.5108 19.5743L37.2753 19.2758C37.1421 19.7628 37.0322 20.1872 36.9506 20.5125C36.8476 20.929 36.9893 21.3583 37.3157 21.6369L38.5024 22.6497L38.4985 22.6501C38.8208 22.9218 39.2639 22.9975 39.6523 22.8378C39.9747 22.7047 40.401 22.5278 40.8888 22.3136L41.1914 26.1296C41.216 26.4393 41.402 26.7074 41.681 26.8393C41.9599 26.9712 42.2868 26.9417 42.5377 26.7642L45.5388 24.6456C46.2816 24.1246 46.692 23.2465 46.6203 22.3424L46.3881 19.413C46.5237 19.3163 46.6519 19.2199 46.7697 19.1246C50.8334 15.8685 51.19 10.8675 50.5076 8.31027C50.3966 7.90355 50.0506 7.60502 49.632 7.563ZM36.385 21.7628C36.1505 21.5047 35.7512 21.4855 35.4932 21.72C34.7498 22.3959 34.3144 23.3988 34.4001 24.4803C34.4307 24.8664 34.5257 25.2334 34.674 25.5707C34.7516 25.7471 34.9053 25.8783 35.0916 25.9272C35.4479 26.0205 35.8251 26.0567 36.211 26.0261C37.292 25.9404 38.2133 25.352 38.7633 24.5112C38.9542 24.2194 38.8726 23.828 38.5809 23.637C38.2892 23.446 38.0876 23.2002 37.8967 23.4921C37.5515 24.0199 37.2104 24.2574 36.5354 24.3109C36.4038 24.3213 36.2744 24.3195 36.1483 24.3063C36.1154 24.1838 36.0931 24.056 36.0827 23.9243C36.0292 23.249 36.1228 22.8186 36.5894 22.3943C36.8473 22.1598 36.6194 22.0209 36.385 21.7628Z" fill="#4E598C"/>
</svg>
