<svg width="63" height="32" viewBox="0 0 63 32" fill="none" xmlns="http://www.w3.org/2000/svg">
<path d="M22.0754 22.2219C22.4466 23.0869 22.7111 24.0202 23.5636 24.5116C23.5316 25.1874 22.6862 25.4616 22.115 25.3784C21.9908 25.0751 21.8152 24.7708 21.4451 24.941C21.0726 25.0906 20.6617 24.9152 20.7485 24.4482C21.8007 24.4086 21.8682 23.031 22.0754 22.2219Z" fill="#1C3C3C"/>
<path fill-rule="evenodd" clip-rule="evenodd" d="M46.9887 0C55.8166 0 62.9977 7.17825 62.9977 16C62.9976 24.823 55.8153 32 46.9887 32H16.0089C7.18234 32 6.29312e-06 24.823 0 16C0 7.17697 7.18234 0 16.0089 0H46.9887ZM19.0328 6.72356C17.7034 4.76139 13.5002 4.22665 12.8841 6.99765C12.8867 7.08457 12.8595 7.13959 12.7842 7.19456C12.4435 7.44158 12.1396 7.72458 11.8847 8.0663C11.261 8.93413 11.1654 10.4066 11.9441 11.1861C11.9697 10.7753 11.9839 10.3872 12.3092 10.0928C12.9111 10.6084 13.8199 10.7915 14.5177 10.4064C16.0597 12.6068 15.6761 15.651 16.9004 18.0215C17.2384 18.5819 17.5787 19.1539 18.0126 19.6453C18.3647 20.193 19.5809 20.8394 19.6532 21.3462C19.666 22.2165 19.564 23.1678 20.1351 23.8961C20.4039 24.4413 19.7436 24.9888 19.2109 24.9212C18.5194 25.0159 17.6754 24.4575 17.0696 24.8015C16.8558 25.0332 16.4367 24.7771 16.2523 25.0983C16.1883 25.2647 15.8427 25.4984 16.0485 25.6584C16.2776 25.4844 16.4901 25.3036 16.7985 25.407C16.7527 25.6576 16.9518 25.6933 17.1092 25.7662C17.1041 25.9365 17.0043 26.1104 17.1349 26.255C17.2871 26.1015 17.3779 25.8836 17.6198 25.8197C18.4241 26.891 19.2426 24.7357 20.9831 25.7059C20.6297 25.688 20.3159 25.7331 20.0777 26.0235C20.0188 26.0888 19.969 26.1656 20.0727 26.2501C21.0111 25.6451 21.0059 26.457 21.6153 26.2075C22.084 25.9631 22.5505 25.6575 23.1075 25.7445C22.5659 25.9006 22.5443 26.336 22.2268 26.7033C22.173 26.7596 22.1473 26.8236 22.21 26.917C23.3342 26.8223 23.4267 26.449 24.3344 25.9908C25.0119 25.5774 25.6873 26.5795 26.2738 26.0087C26.4032 25.8845 26.5798 25.9263 26.7399 25.9097C26.535 24.8179 24.2818 26.1094 24.3176 24.6451C25.0425 24.1524 24.8765 23.2091 24.9252 22.4475C25.7588 22.9095 26.6858 23.1785 27.5028 23.62C27.9152 24.2856 28.5625 25.1648 29.4244 25.1072C29.4474 25.0408 29.4674 24.9819 29.4917 24.9143C29.7528 24.9591 30.0883 25.1313 30.2318 24.8015C30.6223 25.2097 31.1962 25.1894 31.7071 25.0845C32.0612 24.7966 31.1278 24.3938 30.8888 24.0841L30.8522 24.0247C31.1045 23.7188 29.9386 22.8567 29.7004 22.5405C29.2166 22.0157 29.2136 21.2606 28.8871 20.6476C28.0879 18.7968 27.1695 16.9601 25.885 15.3934C24.5275 13.6796 22.8523 12.2607 21.3808 10.6518C20.2887 9.52928 19.997 7.93047 19.0328 6.72356ZM40.6224 6.07941C40.6154 6.07942 39.713 6.08364 39.713 7.11441C39.7131 7.66238 39.9677 8.12945 40.2078 8.44725C40.4401 8.75489 40.6178 9.11957 40.6095 9.50501L40.5027 14.492C40.4923 14.9771 40.3412 15.4494 40.0683 15.8506L35.6314 22.3733C34.4839 24.0606 35.6924 26.3441 37.7331 26.3441H48.3542C50.4024 26.344 51.609 24.0454 50.446 22.3594L45.9923 15.903C45.6931 15.4691 45.5388 14.9517 45.55 14.4247L45.6559 9.43673C45.6633 9.09064 45.82 8.76543 46.02 8.48287C46.2451 8.16484 46.4949 7.68329 46.495 7.11441C46.495 6.07962 45.6678 6.07941 45.6678 6.07941H40.6224Z" fill="#1C3C3C"/>
<path fill-rule="evenodd" clip-rule="evenodd" d="M45.0271 17.1636C45.3662 17.1636 45.6833 17.3334 45.8711 17.6158L49.3511 22.8522C50.022 23.8623 49.2973 25.2131 48.0846 25.2131H38.1373C36.9275 25.2131 36.2027 23.8677 36.8677 22.8571L40.3141 17.6198C40.5015 17.3352 40.8194 17.1638 41.1601 17.1636H45.0271ZM44.4126 20.5981C43.545 20.5983 42.8423 21.3019 42.8423 22.1694C42.8423 23.0371 43.545 23.7406 44.4126 23.7408C45.2803 23.7408 45.9839 23.0372 45.9839 22.1694C45.9839 21.3017 45.2803 20.5981 44.4126 20.5981ZM42.0081 18.636C41.4805 18.6361 41.0533 19.0642 41.0533 19.5918C41.0534 20.1194 41.4806 20.5466 42.0081 20.5467C42.5358 20.5467 42.9638 20.1194 42.964 19.5918C42.964 19.0641 42.5358 18.636 42.0081 18.636Z" fill="#1C3C3C"/>
</svg>
