<svg width="72" height="39" viewBox="0 0 72 39" fill="none" xmlns="http://www.w3.org/2000/svg">
<path d="M71.1123 19.1804C71.1123 29.7573 63.0722 38.3609 53.1914 38.3609H18.5108C8.62992 38.3609 0.589844 29.7573 0.589844 19.1804C0.589844 8.60354 8.62992 -4.57298e-05 18.5108 -4.57298e-05H53.1914C63.0737 -4.57298e-05 71.1123 8.60507 71.1123 19.1804Z" fill="#4E598C"/>
<path d="M50.5121 13.8313C50.8895 13.8014 51.2635 13.9226 51.5515 14.1684C51.8396 14.4143 52.0181 14.7647 52.0481 15.1423C52.078 15.52 51.9568 15.894 51.7111 16.1822C51.4653 16.4704 51.1151 16.649 50.7376 16.679C50.3601 16.7089 49.9862 16.5877 49.6982 16.3418C49.4101 16.096 49.2315 15.7458 49.2016 15.3683C49.1717 14.9906 49.2928 14.6163 49.5386 14.3281C49.7843 14.0399 50.1346 13.8612 50.5121 13.8313Z" fill="white"/>
<path fill-rule="evenodd" clip-rule="evenodd" d="M51.143 3.31519C59.8574 3.31522 66.9467 10.4323 66.9468 19.1804C66.9468 27.9285 59.8575 35.0459 51.143 35.046H20.5597C11.8451 35.0459 4.75586 27.9285 4.75586 19.1804C4.75595 10.4323 11.8452 3.3152 20.5597 3.31519H51.143ZM23.5485 9.98586C22.2348 8.0408 18.0869 7.50973 17.4786 10.2577C17.4811 10.3425 17.4538 10.3976 17.379 10.4525C17.0425 10.6993 16.7432 10.9785 16.4914 11.3176C15.8757 12.1779 15.7813 13.6367 16.5489 14.4098C16.5763 14.0009 16.589 13.6168 16.9105 13.3251C17.5037 13.8362 18.4034 14.0184 19.0914 13.6369C20.6119 15.819 20.233 18.8366 21.442 21.1882C21.776 21.7442 22.1127 22.3126 22.5414 22.7988C22.8904 23.34 24.0917 23.9812 24.1615 24.4849C24.174 25.3477 24.0745 26.2902 24.6377 27.0134C24.9044 27.5545 24.2516 28.0983 23.7256 28.0311C23.0427 28.1259 22.21 27.5696 21.6117 27.9111C21.3999 28.1405 20.9861 27.8864 20.8041 28.2055C20.7393 28.3701 20.3978 28.6019 20.6021 28.7615C20.8289 28.5895 21.0383 28.4099 21.3424 28.5121C21.2975 28.7614 21.4944 28.7966 21.6489 28.8689C21.6439 29.0359 21.5443 29.2081 21.6738 29.3527C21.8233 29.2006 21.9132 28.9835 22.1525 28.9212C22.9476 29.9835 23.7553 27.8465 25.4727 28.8089C25.1238 28.7915 24.8124 28.8341 24.5781 29.1233C24.5208 29.1881 24.4707 29.263 24.5729 29.3478C25.5001 28.7468 25.4953 29.552 26.0959 29.3053C26.5595 29.0635 27.0183 28.7592 27.5691 28.8464C27.0333 29.0011 27.0134 29.4325 26.6994 29.7965C26.6446 29.8513 26.6196 29.9162 26.6819 30.0084C27.7911 29.9161 27.8809 29.5448 28.7782 29.091C29.4463 28.6795 30.1143 29.6743 30.6926 29.1082C30.8222 28.986 30.9967 29.0284 31.1538 29.011C30.9518 27.9288 28.7284 29.2079 28.7632 27.7568C29.4786 27.268 29.3141 26.3327 29.3614 25.5771C30.184 26.0359 31.099 26.3001 31.9067 26.739C32.3155 27.3974 32.9535 28.2702 33.8035 28.2129C33.8259 28.1456 33.8459 28.0882 33.8708 28.0209C34.1276 28.0658 34.4592 28.2354 34.6013 27.9087C34.9852 28.3127 35.5535 28.2927 36.057 28.1879L36.0619 28.1904C36.4356 27.8862 35.3613 27.4524 35.2168 27.1407C35.466 26.8365 34.3145 25.9836 34.0802 25.6693C33.6016 25.1482 33.599 24.4002 33.2775 23.7917C32.4873 21.9564 31.5826 20.1358 30.3139 18.5822C28.9728 16.884 27.3198 15.4775 25.8665 13.8815C24.7897 12.7692 24.5007 11.1829 23.5485 9.98586ZM54.3878 9.95533C51.7596 9.68383 46.8753 10.8206 44.3019 15.3518C44.2266 15.4867 44.1519 15.6254 44.0778 15.7745L41.1492 16.0068C40.2454 16.0785 39.447 16.6219 39.0462 17.4382L37.4278 20.7367C37.2922 21.0125 37.3147 21.3403 37.4888 21.5952C37.663 21.8499 37.9607 21.9909 38.2666 21.9667L42.0312 21.6681C41.8979 22.1551 41.7881 22.5795 41.7065 22.9048C41.6035 23.3213 41.7451 23.7506 42.0715 24.0292L43.2582 25.0421L43.2544 25.0424C43.5767 25.3142 44.0198 25.3899 44.4081 25.2301C44.7305 25.0971 45.1569 24.9201 45.6446 24.706L45.9473 28.5219C45.9718 28.8316 46.1578 29.0998 46.4368 29.2317C46.7158 29.3635 47.0427 29.334 47.2935 29.1566L50.2947 27.0379C51.0375 26.5169 51.4478 25.6389 51.3762 24.7347L51.144 21.8053C51.2795 21.7086 51.4078 21.6122 51.5256 21.5169C55.5893 18.2609 55.9459 13.2598 55.2635 10.7026C55.1525 10.2959 54.8065 9.99735 54.3878 9.95533ZM41.1408 24.1552C40.9063 23.897 40.507 23.8778 40.249 24.1124C39.5057 24.7882 39.0703 25.7912 39.156 26.8727C39.1866 27.2587 39.2815 27.6258 39.4298 27.9631C39.5074 28.1394 39.6612 28.2707 39.8475 28.3195C40.2038 28.4129 40.581 28.449 40.9669 28.4184C42.0478 28.3327 42.9691 27.7443 43.5191 26.9036C43.71 26.6117 43.6284 26.2203 43.3368 26.0293C43.0451 25.8383 42.8435 25.5925 42.6526 25.8844C42.3073 26.4122 41.9663 26.6497 41.2913 26.7032C41.1596 26.7137 41.0302 26.7118 40.9041 26.6987C40.8713 26.5761 40.849 26.4483 40.8385 26.3166C40.785 25.6414 40.8786 25.2109 41.3453 24.7866C41.6032 24.5521 41.3753 24.4132 41.1408 24.1552Z" fill="white"/>
</svg>
