<svg width="72" height="39" viewBox="0 0 72 39" fill="none" xmlns="http://www.w3.org/2000/svg">
<path d="M71.1123 19.1804C71.1123 29.7573 63.0722 38.3609 53.1914 38.3609H18.5108C8.62992 38.3609 0.589844 29.7573 0.589844 19.1804C0.589844 8.60354 8.62992 -4.57298e-05 18.5108 -4.57298e-05H53.1914C63.0737 -4.57298e-05 71.1123 8.60507 71.1123 19.1804Z" fill="#BCB2FD"/>
<path d="M54.7531 12.806C55.9904 14.0425 55.9904 16.0547 54.7531 17.2911L51.9812 20.0163L51.953 19.8601C51.7506 18.7401 51.2178 17.7238 50.4134 16.9199C49.8075 16.3158 49.0914 15.8691 48.2845 15.5926C47.7836 16.0956 47.5082 16.7548 47.5082 17.4486C47.5082 17.5894 47.5211 17.7353 47.5467 17.8812C47.9911 18.0412 48.3844 18.2883 48.7149 18.6185C49.9522 19.855 49.9522 21.8671 48.7149 23.1036L46.3016 25.5151C45.6829 26.1334 44.8708 26.4419 44.0575 26.4419C43.2441 26.4419 42.432 26.1334 41.8133 25.5151C40.576 24.2787 40.576 22.2665 41.8133 21.03L44.5852 18.3062L44.6134 18.4623C44.8145 19.5798 45.3474 20.5961 46.1543 21.4012C46.7615 22.0079 47.434 22.4111 48.2396 22.6863L48.3882 22.5379C48.8391 22.0873 49.0863 21.4883 49.0863 20.8495C49.0863 20.7075 49.0735 20.5654 49.0492 20.4259C48.5842 20.2723 48.2012 20.0534 47.8528 19.7052C47.3507 19.2035 47.0382 18.5622 46.951 17.8518C46.9446 17.8006 46.9408 17.7507 46.9357 17.6995C46.8665 16.774 47.2008 15.8703 47.8528 15.2201L50.266 12.8086C50.8642 12.2108 51.661 11.8806 52.5102 11.8806C53.3594 11.8806 54.1562 12.2095 54.7544 12.8086L54.7531 12.806ZM67.3547 19.1804C67.3547 28.0035 60.1713 35.1804 51.3433 35.1804H20.3581C11.53 35.1804 4.34668 28.0035 4.34668 19.1804C4.34668 10.3574 11.53 3.18042 20.3581 3.18042H51.3433C60.1726 3.18042 67.3547 10.3587 67.3547 19.1804ZM35.2038 27.2047C35.4562 26.8988 34.2905 26.0374 34.0523 25.7212C33.5681 25.1964 33.5655 24.4412 33.2389 23.8281C32.4396 21.9772 31.5212 20.1404 30.2364 18.5737C28.8787 16.8598 27.2032 15.4415 25.7315 13.8326C24.6389 12.71 24.3468 11.1113 23.3823 9.90426C22.0527 7.94202 17.8488 7.40698 17.2326 10.1782C17.2352 10.2652 17.2083 10.3203 17.1327 10.3753C16.792 10.6223 16.4884 10.9052 16.2335 11.247C15.6097 12.1148 15.5137 13.5868 16.2925 14.3663C16.3181 13.9555 16.3322 13.5676 16.6575 13.2732C17.2595 13.7891 18.169 13.9721 18.8671 13.5868C20.4093 15.7871 20.025 18.831 21.2496 21.2015C21.5877 21.7622 21.9285 22.3343 22.3627 22.8259C22.7149 23.3737 23.9318 24.0201 24.0035 24.527C24.0163 25.3974 23.9139 26.3484 24.4852 27.0767C24.7541 27.622 24.0932 28.1699 23.5603 28.102C22.8686 28.1967 22.0245 27.6374 21.4187 27.9817C21.2047 28.2134 20.7859 27.9574 20.6014 28.2787C20.5374 28.4451 20.1915 28.6793 20.3978 28.8393C20.6271 28.6652 20.8397 28.4835 21.1484 28.5871C21.1023 28.838 21.3008 28.8739 21.4584 28.9468C21.4532 29.1171 21.3533 29.2911 21.484 29.4358C21.6364 29.2822 21.7274 29.0646 21.9694 29.0006C22.7739 30.0719 23.5924 27.9164 25.3331 28.8867C24.9796 28.8687 24.6658 28.9135 24.4275 29.2041C24.3686 29.2694 24.3186 29.3462 24.4224 29.4307C25.3613 28.8252 25.3562 29.638 25.9659 29.3884C26.4347 29.1439 26.901 28.838 27.4582 28.9251C26.9163 29.0812 26.8946 29.5164 26.5769 29.8838C26.5231 29.9401 26.4975 30.0041 26.5602 30.0975C27.6849 30.0028 27.7771 29.6291 28.6853 29.1708C29.3629 28.7574 30.0379 29.7596 30.6246 29.1887C30.7539 29.0646 30.9307 29.1068 31.0908 29.0902C30.8859 27.9983 28.6327 29.2899 28.6686 27.8255C29.3936 27.3327 29.2271 26.3894 29.2758 25.6278C30.1096 26.0899 31.037 26.3587 31.8542 26.8003C32.2667 27.4659 32.9135 28.3452 33.7756 28.2876C33.7987 28.2211 33.8192 28.1622 33.8435 28.0943C34.1048 28.1391 34.4404 28.3119 34.5839 27.9817C34.9745 28.39 35.5484 28.3695 36.0595 28.2646C36.4373 27.9574 35.3486 27.5196 35.2025 27.2035L35.2038 27.2047ZM58.0822 15.0486C58.0822 13.5587 57.5032 12.1596 56.4516 11.1087C55.3999 10.0579 53.9999 9.4793 52.5076 9.4793C51.0154 9.4793 49.6153 10.0579 48.5637 11.1087L46.1505 13.5203C45.5869 14.0835 45.1591 14.7452 44.8785 15.4863L44.8619 15.5286L44.8183 15.5414C43.9422 15.8115 43.1698 16.2748 42.5229 16.9212L40.1097 19.3327C37.936 21.5062 37.936 25.0415 40.1097 27.2137C41.1613 28.2646 42.5614 28.8431 44.0523 28.8431C45.5433 28.8431 46.9446 28.2646 47.9963 27.2137L50.4095 24.8022C50.9705 24.2415 51.3958 23.5823 51.6763 22.8425L51.693 22.8003L51.7365 22.7862C52.5973 22.5225 53.3915 22.0438 54.0358 21.4012L56.449 18.9897C57.5006 17.9388 58.0796 16.5398 58.0796 15.0486H58.0822ZM26.427 25.4012C26.2195 26.2102 26.1516 27.5887 25.0987 27.6284C25.0116 28.0956 25.4228 28.271 25.7955 28.1212C26.1657 27.951 26.3412 28.2556 26.4654 28.559C27.0367 28.6422 27.8821 28.3683 27.9142 27.6924C27.0611 27.2009 26.7972 26.2665 26.4257 25.4012H26.427Z" fill="white"/>
</svg>
