<svg width="265" height="32" viewBox="0 0 265 32" fill="none" xmlns="http://www.w3.org/2000/svg">
<path d="M49.7397 9.49987C50.9607 10.7202 50.9607 12.7061 49.7397 13.9264L47.0045 16.6159L46.9767 16.4618C46.777 15.3564 46.2512 14.3534 45.4574 13.5601C44.8596 12.9638 44.153 12.5229 43.3567 12.25C42.8625 12.7465 42.5907 13.3971 42.5907 14.0818C42.5907 14.2207 42.6034 14.3648 42.6287 14.5088C43.0672 14.6667 43.4553 14.9105 43.7814 15.2364C45.0024 16.4568 45.0024 18.4426 43.7814 19.663L41.4001 22.043C40.7896 22.6531 39.9882 22.9576 39.1856 22.9576C38.383 22.9576 37.5816 22.6531 36.9711 22.043C35.7501 20.8227 35.7501 18.8368 36.9711 17.6164L39.7064 14.9282L39.7342 15.0823C39.9326 16.1851 40.4584 17.1882 41.2547 17.9828C41.8538 18.5816 42.5174 18.9795 43.3125 19.2511L43.4591 19.1046C43.904 18.6599 44.1479 18.0687 44.1479 17.4383C44.1479 17.2981 44.1353 17.1579 44.1113 17.0202C43.6525 16.8686 43.2745 16.6526 42.9307 16.309C42.4353 15.8137 42.1269 15.1808 42.0409 14.4797C42.0346 14.4292 42.0308 14.3799 42.0257 14.3294C41.9575 13.416 42.2874 12.5242 42.9307 11.8824L45.3121 9.50239C45.9023 8.91244 46.6885 8.58652 47.5265 8.58652C48.3645 8.58652 49.1507 8.91118 49.741 9.50239L49.7397 9.49987ZM62.1747 15.791C62.1747 24.4988 55.0863 31.582 46.3751 31.582H15.7996C7.08834 31.582 0 24.4988 0 15.791C0 7.08321 7.08834 0 15.7996 0H46.3751C55.0876 0 62.1747 7.08448 62.1747 15.791ZM30.449 23.7105C30.698 23.4086 29.5478 22.5584 29.3127 22.2464C28.8349 21.7284 28.8324 20.9831 28.5101 20.378C27.7214 18.5513 26.8151 16.7385 25.5474 15.1922C24.2076 13.5007 22.5543 12.101 21.102 10.513C20.0238 9.40512 19.7356 7.82728 18.7839 6.63601C17.4719 4.6994 13.3235 4.17135 12.7155 6.90635C12.7181 6.99226 12.6915 7.04658 12.6169 7.1009C12.2807 7.34471 11.9812 7.6239 11.7296 7.96119C11.1141 8.8177 11.0193 10.2705 11.7878 11.0398C11.8131 10.6343 11.827 10.2515 12.148 9.96097C12.7421 10.4701 13.6395 10.6507 14.3284 10.2705C15.8502 12.442 15.471 15.4461 16.6793 17.7857C17.013 18.339 17.3493 18.9037 17.7777 19.3888C18.1253 19.9295 19.3261 20.5675 19.3969 21.0677C19.4095 21.9268 19.3084 22.8654 19.8721 23.5842C20.1376 24.1223 19.4854 24.663 18.9595 24.5961C18.277 24.6896 17.444 24.1375 16.8462 24.4773C16.6351 24.706 16.2218 24.4533 16.0398 24.7704C15.9766 24.9346 15.6353 25.1658 15.8388 25.3237C16.0651 25.1519 16.2749 24.9725 16.5795 25.0749C16.534 25.3225 16.7299 25.3578 16.8854 25.4298C16.8803 25.5979 16.7817 25.7697 16.9107 25.9124C17.0611 25.7608 17.1508 25.5461 17.3897 25.4829C18.1835 26.5403 18.9911 24.4129 20.7089 25.3705C20.36 25.3528 20.0504 25.397 19.8153 25.6838C19.7571 25.7482 19.7078 25.824 19.8102 25.9074C20.7367 25.3098 20.7316 26.112 21.3333 25.8657C21.7959 25.6244 22.256 25.3225 22.8058 25.4084C22.2712 25.5625 22.2497 25.992 21.9362 26.3546C21.8831 26.4101 21.8578 26.4733 21.9198 26.5655C23.0295 26.472 23.1205 26.1032 24.0167 25.6509C24.6853 25.2429 25.3514 26.232 25.9303 25.6686C26.058 25.5461 26.2324 25.5877 26.3904 25.5713C26.1882 24.4937 23.9649 25.7684 24.0003 24.3232C24.7157 23.8368 24.5514 22.9058 24.5994 22.1541C25.4222 22.6102 26.3373 22.8755 27.1438 23.3113C27.5508 23.9682 28.1891 24.8361 29.0397 24.7792C29.0625 24.7136 29.0827 24.6554 29.1067 24.5885C29.3646 24.6327 29.6957 24.8032 29.8373 24.4773C30.2228 24.8803 30.789 24.8601 31.2934 24.7565C31.6662 24.4533 30.5919 24.0213 30.4478 23.7092L30.449 23.7105ZM53.0248 11.7131C53.0248 10.2427 52.4535 8.86191 51.4158 7.82476C50.3781 6.78761 48.9965 6.2166 47.524 6.2166C46.0515 6.2166 44.67 6.78761 43.6322 7.82476L41.2509 10.2048C40.6948 10.7606 40.2726 11.4137 39.9958 12.1452L39.9794 12.1869L39.9364 12.1995C39.0718 12.4661 38.3097 12.9234 37.6714 13.5613L35.29 15.9413C33.1451 18.0864 33.1451 21.5756 35.29 23.7194C36.3278 24.7565 37.7093 25.3275 39.1805 25.3275C40.6518 25.3275 42.0346 24.7565 43.0723 23.7194L45.4536 21.3393C46.0072 20.786 46.4269 20.1354 46.7037 19.4053L46.7201 19.3636L46.7631 19.3497C47.6125 19.0894 48.3961 18.617 49.0319 17.9828L51.4132 15.6028C52.451 14.5656 53.0223 13.1849 53.0223 11.7131H53.0248ZM21.7883 21.9305C21.5836 22.7289 21.5166 24.0895 20.4776 24.1287C20.3916 24.5898 20.7974 24.7628 21.1652 24.615C21.5305 24.447 21.7036 24.7477 21.8262 25.0471C22.39 25.1292 23.2242 24.8588 23.2558 24.1918C22.414 23.7067 22.1536 22.7845 21.7871 21.9305H21.7883Z" fill="#F8F7FF"/>
<path d="M259.381 26.4794C257.725 26.4794 256.35 26.1361 255.255 25.4495C254.16 24.7538 253.481 23.7962 253.219 22.5765L254.386 22.3597C254.63 23.2631 255.2 23.9859 256.096 24.528C257.001 25.07 258.105 25.3411 259.408 25.3411C260.738 25.3411 261.792 25.0565 262.57 24.4873C263.358 23.9181 263.751 23.1457 263.751 22.1699C263.751 21.6369 263.634 21.2032 263.398 20.8689C263.163 20.5256 262.702 20.2139 262.014 19.9339C261.335 19.6538 260.331 19.3331 259.001 18.9717C257.607 18.5922 256.521 18.2263 255.743 17.874C254.974 17.5126 254.431 17.1106 254.115 16.6679C253.807 16.2161 253.653 15.665 253.653 15.0145C253.653 14.2376 253.884 13.5509 254.345 12.9546C254.807 12.3584 255.445 11.8931 256.259 11.5588C257.073 11.2245 258.014 11.0574 259.082 11.0574C260.159 11.0574 261.127 11.2381 261.987 11.5994C262.855 11.9518 263.552 12.4487 264.077 13.0902C264.611 13.7226 264.918 14.4544 265 15.2856L263.833 15.5024C263.661 14.4815 263.136 13.6774 262.258 13.0902C261.39 12.4939 260.304 12.1957 259.001 12.1957C257.779 12.1777 256.779 12.4261 256.001 12.9411C255.232 13.4561 254.847 14.1291 254.847 14.9603C254.847 15.4211 254.979 15.8186 255.241 16.1529C255.503 16.4781 255.96 16.7763 256.612 17.0473C257.263 17.3184 258.168 17.5984 259.326 17.8875C260.792 18.258 261.932 18.6329 262.747 19.0123C263.57 19.3918 264.145 19.8345 264.471 20.3404C264.805 20.8464 264.973 21.4743 264.973 22.2241C264.973 23.5522 264.475 24.5957 263.48 25.3546C262.484 26.1045 261.118 26.4794 259.381 26.4794Z" fill="#F8F7FF"/>
<path d="M245.291 26.5065C243.834 26.5065 242.613 26.1813 241.626 25.5308C240.64 24.8803 239.893 23.9769 239.387 22.8204C238.88 21.655 238.613 20.3088 238.586 18.782C238.613 17.219 238.88 15.8593 239.387 14.7028C239.902 13.5464 240.654 12.652 241.64 12.0196C242.626 11.3781 243.843 11.0574 245.291 11.0574C246.648 11.0574 247.856 11.3826 248.915 12.0331C249.983 12.6746 250.738 13.56 251.181 14.6893L250.096 15.15C249.688 14.2104 249.06 13.4832 248.209 12.9682C247.368 12.4532 246.395 12.1957 245.291 12.1957C244.06 12.1957 243.042 12.4758 242.237 13.036C241.432 13.5871 240.83 14.3595 240.432 15.3533C240.034 16.3381 239.826 17.481 239.807 18.782C239.835 20.7696 240.305 22.3642 241.219 23.5658C242.133 24.7674 243.49 25.3682 245.291 25.3682C246.368 25.3682 247.322 25.1197 248.155 24.6228C248.987 24.1259 249.625 23.3986 250.068 22.441L251.181 22.9288C250.575 24.1033 249.774 24.9932 248.779 25.5986C247.784 26.2039 246.621 26.5065 245.291 26.5065Z" fill="#F8F7FF"/>
<path d="M229.703 26.5065C228.255 26.5065 227.034 26.1768 226.038 25.5173C225.043 24.8577 224.287 23.9452 223.772 22.7798C223.256 21.6143 222.998 20.2727 222.998 18.7549C222.998 17.219 223.26 15.8728 223.785 14.7164C224.31 13.56 225.07 12.661 226.065 12.0196C227.07 11.3781 228.282 11.0574 229.703 11.0574C231.16 11.0574 232.386 11.3871 233.381 12.0467C234.377 12.6972 235.128 13.6006 235.634 14.757C236.15 15.9135 236.408 17.2461 236.408 18.7549C236.408 20.2998 236.15 21.655 235.634 22.8204C235.119 23.9769 234.358 24.8803 233.354 25.5308C232.359 26.1813 231.142 26.5065 229.703 26.5065ZM229.703 25.3682C231.549 25.3682 232.924 24.7583 233.829 23.5387C234.734 22.31 235.186 20.7154 235.186 18.7549C235.186 16.7582 234.729 15.1681 233.816 13.9846C232.911 12.792 231.54 12.1957 229.703 12.1957C228.463 12.1957 227.436 12.4758 226.622 13.036C225.817 13.5961 225.215 14.3686 224.817 15.3533C224.419 16.3381 224.22 17.4719 224.22 18.7549C224.22 20.7425 224.681 22.3416 225.604 23.5522C226.536 24.7629 227.902 25.3682 229.703 25.3682Z" fill="#F8F7FF"/>
<path d="M206.105 26.1001V6.58533H211.833C212.068 6.58533 212.444 6.58984 212.96 6.59888C213.475 6.60791 213.969 6.64857 214.439 6.72085C215.878 6.92864 217.068 7.47975 218.009 8.37418C218.959 9.2686 219.665 10.407 220.126 11.7893C220.588 13.1625 220.818 14.6803 220.818 16.3427C220.818 18.0141 220.588 19.5409 220.126 20.9232C219.665 22.2965 218.959 23.4303 218.009 24.3248C217.068 25.2102 215.878 25.7568 214.439 25.9645C213.978 26.0278 213.48 26.0684 212.946 26.0865C212.421 26.0955 212.05 26.1001 211.833 26.1001H206.105ZM207.327 24.9617H211.833C212.268 24.9617 212.702 24.9482 213.136 24.921C213.58 24.8939 213.951 24.8533 214.249 24.7991C215.534 24.5823 216.566 24.0899 217.344 23.3219C218.131 22.5449 218.701 21.5602 219.054 20.3676C219.416 19.166 219.597 17.8244 219.597 16.3427C219.597 14.861 219.416 13.5239 219.054 12.3313C218.701 11.1297 218.131 10.145 217.344 9.37702C216.566 8.60004 215.534 8.10314 214.249 7.88631C213.951 7.8321 213.575 7.79145 213.123 7.76434C212.67 7.73724 212.24 7.72369 211.833 7.72369H207.327V24.9617Z" fill="#F8F7FF"/>
<path d="M74.4297 7.078V26.2293H87.6293V23.3377H77.4266V7.078H74.4297Z" fill="#F8F7FF"/>
<path d="M141.483 7.078C138.888 7.078 136.686 8.01283 135.115 9.78269C133.558 11.5361 132.736 13.997 132.736 16.8987C132.736 22.8652 136.181 26.7207 141.51 26.7207C145.265 26.7207 148.172 24.7576 149.288 21.4706L149.558 20.6734L146.584 19.5441L146.31 20.4321C145.645 22.581 143.94 23.7647 141.508 23.7647C138.035 23.7647 135.877 21.1345 135.877 16.9C135.877 12.6655 138.055 10.0353 141.561 10.0353C143.992 10.0353 145.392 10.9879 146.105 13.1228L146.416 14.0538L149.312 12.6958L149.047 11.9505C147.914 8.76448 145.299 7.07927 141.482 7.07927L141.483 7.078Z" fill="#F8F7FF"/>
<path d="M94.6655 11.6233C91.7887 11.6233 89.6374 12.9712 88.764 15.3209C88.7084 15.4712 88.5403 15.9248 88.5403 15.9248L91.0063 17.519L91.3413 16.6461C91.9126 15.1579 92.9693 14.4644 94.6655 14.4644C96.3618 14.4644 97.3325 15.2868 97.3148 16.9063C97.3148 16.972 97.3097 17.1704 97.3097 17.1704C97.3097 17.1704 95.0649 17.5342 94.1397 17.73C90.1923 18.5638 88.5391 20.0696 88.5391 22.533C88.5391 23.8455 89.2684 25.2667 90.5993 26.0638C91.3982 26.5414 92.4409 26.722 93.5924 26.722C94.3495 26.722 95.0852 26.6096 95.7664 26.4024C97.3148 25.8883 97.7471 24.8776 97.7471 24.8776V26.199H100.312V16.7522C100.312 13.541 98.2008 11.6233 94.6655 11.6233ZM97.3237 21.7043C97.3237 22.6972 96.2417 24.0957 93.7213 24.0957C93.0097 24.0957 92.5054 23.9074 92.1692 23.627C91.7192 23.2518 91.5713 22.7124 91.6333 22.2361C91.6598 22.0289 91.7849 21.583 92.2488 21.1964C92.7228 20.801 93.5608 20.518 94.8551 20.2363C95.9194 20.0052 97.3249 19.75 97.3249 19.75V21.7055L97.3237 21.7043Z" fill="#F8F7FF"/>
<path d="M109.792 11.6221C109.436 11.6221 109.088 11.6473 108.751 11.6941C106.454 12.039 105.782 13.205 105.782 13.205L105.784 12.0288H102.91V26.2016H105.907V18.3465C105.907 15.6772 107.855 14.4619 109.665 14.4619C111.621 14.4619 112.572 15.513 112.572 17.677V26.2016H115.569V17.2651C115.569 13.7835 113.356 11.6221 109.794 11.6221H109.792Z" fill="#F8F7FF"/>
<path d="M193.597 11.6221C193.241 11.6221 192.893 11.6473 192.556 11.6941C190.259 12.039 189.587 13.205 189.587 13.205V12.0276H186.715V26.2016H189.712V18.3465C189.712 15.6772 191.659 14.4619 193.469 14.4619C195.426 14.4619 196.377 15.513 196.377 17.677V26.2016H199.373V17.2651C199.373 13.7835 197.16 11.6221 193.598 11.6221H193.597Z" fill="#F8F7FF"/>
<path d="M128.076 12.0288V13.4879C128.076 13.4879 127.342 11.6221 124.001 11.6221C119.85 11.6221 117.271 14.4847 117.271 19.0944C117.271 21.6955 118.103 23.7432 119.571 25.0368C120.712 26.0424 122.236 26.5578 124.051 26.5932C125.314 26.6172 126.132 26.2736 126.643 25.9489C127.623 25.3249 127.987 24.7324 127.987 24.7324C127.987 24.7324 127.946 25.196 127.87 25.8239C127.816 26.2786 127.713 26.5983 127.713 26.5983C127.257 28.2216 125.922 29.1602 123.976 29.1602C122.029 29.1602 120.85 28.5197 120.616 27.2577L117.702 28.1268C118.206 30.5523 120.483 32 123.795 32C126.046 32 127.81 31.3886 129.04 30.1809C130.28 28.9631 130.91 27.2084 130.91 24.9648V12.0276H128.076V12.0288ZM127.886 19.2232C127.886 22.058 126.501 23.7508 124.18 23.7508C121.694 23.7508 120.268 22.053 120.268 19.0944C120.268 16.1358 121.694 14.4632 124.18 14.4632C126.445 14.4632 127.865 16.1484 127.886 18.8619V19.2232Z" fill="#F8F7FF"/>
<path d="M158.191 11.622C157.862 11.622 157.542 11.6435 157.232 11.6839C154.972 12.0364 154.307 13.1872 154.307 13.1872V12.8499H154.305V7.078H151.309V26.2028H154.305V18.3477C154.305 15.6607 156.253 14.4379 158.063 14.4379C160.02 14.4379 160.97 15.4889 160.97 17.6529V26.2028H163.967V17.2411C163.967 13.829 161.7 11.6233 158.192 11.6233L158.191 11.622Z" fill="#F8F7FF"/>
<path d="M182.447 10.9651C183.52 10.9651 184.389 10.0958 184.389 9.02345C184.389 7.9511 183.52 7.08179 182.447 7.08179C181.374 7.08179 180.504 7.9511 180.504 9.02345C180.504 10.0958 181.374 10.9651 182.447 10.9651Z" fill="#F8F7FF"/>
<path d="M180.958 12.0212V19.2143C180.105 18.512 179.112 17.9826 177.987 17.6656V16.7522C177.987 13.541 175.877 11.6233 172.341 11.6233C169.465 11.6233 167.313 12.9712 166.44 15.3209C166.384 15.4712 166.216 15.9248 166.216 15.9248L168.682 17.519L169.017 16.6461C169.588 15.1579 170.645 14.4644 172.341 14.4644C174.038 14.4644 175.008 15.2868 174.991 16.9063C174.991 16.9164 174.991 17.0516 174.991 17.2676C173.722 17.2323 172.541 17.3548 171.481 17.6037C170.083 17.9195 167.486 18.7217 166.559 20.8073C166.552 20.8212 166.416 21.1813 166.416 21.1813C166.282 21.5956 166.215 22.0454 166.215 22.533C166.215 23.8455 166.944 25.2667 168.275 26.0638C169.074 26.5414 170.117 26.722 171.268 26.722C172.011 26.722 172.734 26.6134 173.406 26.4138C174.984 25.9034 175.423 24.8776 175.423 24.8776V26.2003H177.987V21.871C177.267 21.4213 176.185 21.156 174.998 21.1585C174.998 21.4933 174.998 21.7055 174.998 21.7055C174.998 22.6985 173.916 24.0969 171.396 24.0969C170.684 24.0969 170.18 23.9087 169.844 23.6282C169.394 23.253 169.246 22.7136 169.308 22.2374C169.334 22.0302 169.459 21.5843 169.923 21.1977L169.918 21.1838C170.983 20.3134 173.074 19.966 174.996 20.0418V20.0456C176.631 20.105 177.855 20.4258 178.728 21.0271C178.966 21.1775 179.189 21.3455 179.396 21.5299C180.273 22.317 180.625 23.2859 180.777 23.8518C181.024 24.7753 180.958 26.1978 180.958 26.1978H183.939V12.0238H180.958V12.0212Z" fill="#F8F7FF"/>
</svg>
