<svg width="72" height="39" viewBox="0 0 72 39" fill="none" xmlns="http://www.w3.org/2000/svg">
<path d="M71.1123 19.1804C71.1123 29.7573 63.0722 38.3609 53.1914 38.3609H18.5108C8.62992 38.3609 0.589844 29.7573 0.589844 19.1804C0.589844 8.60354 8.62992 -4.57298e-05 18.5108 -4.57298e-05H53.1914C63.0737 -4.57298e-05 71.1123 8.60507 71.1123 19.1804Z" fill="#D65622"/>
<path d="M41.3324 27.7321C41.157 28.0239 40.6298 28.0431 40.1806 27.7731C39.9502 27.6348 39.7724 27.4441 39.6802 27.2367C39.5957 27.0486 39.5945 26.8707 39.6751 26.7363C39.7672 26.5827 39.9579 26.5046 40.1831 26.5046C40.3853 26.5046 40.6157 26.5673 40.8281 26.6953C41.2773 26.9654 41.509 27.4403 41.3336 27.7321H41.3324ZM67.3265 19.1804C67.3265 28.0022 60.1497 35.1804 51.3297 35.1804H20.3727C11.5528 35.1804 4.37598 28.0035 4.37598 19.1804C4.37598 10.3574 11.5528 3.18042 20.3727 3.18042H51.3297C60.151 3.18042 67.3265 10.3587 67.3265 19.1804ZM35.205 27.2047C35.4571 26.8988 34.2925 26.0374 34.0545 25.7212C33.5707 25.1964 33.5682 24.4412 33.2418 23.8281C32.4433 21.9772 31.5257 20.1404 30.2421 18.5737C28.8856 16.8598 27.2117 15.4415 25.7413 13.8326C24.6496 12.71 24.3579 11.1113 23.3942 9.90426C22.0658 7.94202 17.8657 7.40698 17.2502 10.1782C17.2527 10.2652 17.2259 10.3203 17.1504 10.3753C16.8099 10.6223 16.5066 10.9052 16.252 11.247C15.6287 12.1148 15.5328 13.5868 16.3108 14.3663C16.3364 13.9555 16.3505 13.5676 16.6756 13.2732C17.2771 13.7903 18.1857 13.9721 18.8831 13.5868C20.4239 15.7871 20.04 18.831 21.2634 21.2015C21.6013 21.7622 21.9417 22.3343 22.3755 22.8259C22.7275 23.3737 23.9432 24.0201 24.0149 24.527C24.0277 25.3974 23.9253 26.3484 24.4961 27.0767C24.7648 27.622 24.1045 28.1699 23.5721 28.102C22.881 28.1967 22.0377 27.6374 21.4324 27.9817C21.2187 28.2134 20.8002 27.9574 20.6159 28.2787C20.5519 28.4451 20.2064 28.6793 20.4124 28.8393C20.6415 28.6652 20.8539 28.4835 21.1623 28.5871C21.1163 28.838 21.3146 28.8739 21.472 28.9468C21.4669 29.1171 21.3671 29.2911 21.4976 29.4358C21.6499 29.2822 21.7408 29.0646 21.9827 29.0006C22.7863 30.0719 23.6041 27.9164 25.3433 28.8867C24.9901 28.87 24.6765 28.9135 24.4385 29.2041C24.3796 29.2694 24.3297 29.3462 24.4334 29.4307C25.3714 28.8252 25.3663 29.638 25.9755 29.3884C26.4438 29.1439 26.9097 28.838 27.4664 28.9251C26.925 29.0812 26.9033 29.5164 26.5859 29.8838C26.5321 29.9401 26.5065 30.0041 26.5693 30.0975C27.6929 30.0028 27.785 29.6291 28.6923 29.1708C29.3693 28.7574 30.0438 29.7596 30.6299 29.1887C30.7591 29.0646 30.9357 29.1068 31.0957 29.0902C30.8909 27.9983 28.6399 29.2899 28.6757 27.8255C29.4 27.3327 29.2337 26.3894 29.2823 25.6278C30.1154 26.0899 31.042 26.3587 31.8584 26.8003C32.2705 27.4659 32.9168 28.3452 33.778 28.2876C33.8011 28.2211 33.8216 28.1622 33.8459 28.0943C34.1069 28.1391 34.4422 28.3119 34.5856 27.9817C34.9759 28.39 35.5492 28.3695 36.0598 28.2646C36.4373 27.9574 35.3496 27.5196 35.2037 27.2035L35.205 27.2047ZM46.8826 22.0451L45.1703 19.7334C43.6756 21.4435 42.6774 22.2767 42.6594 22.2921C42.6505 22.3011 41.6971 23.2291 40.8281 24.0252C39.9758 24.806 39.3027 25.4243 38.9597 26.1001C38.865 26.287 38.659 26.9756 38.9482 27.6643C39.1709 28.1967 39.6252 28.5756 40.2996 28.7907C40.5018 28.8547 40.695 28.8828 40.8793 28.8828C42.0938 28.8828 42.8911 27.6643 42.8962 27.654C42.9064 27.6399 43.9392 26.1641 45.1972 24.3004C45.6157 23.6809 46.0943 23.0255 46.8826 22.0438V22.0451ZM54.9335 27.3686C54.9335 27.0281 54.8093 26.6991 54.5841 26.4444L54.3716 26.2038C53.0881 24.7484 49.7927 21.0121 48.5104 19.5606C46.9005 17.7379 45.0999 15.4147 44.9502 15.2201L44.7339 14.7721V13.9836C44.7339 13.6943 44.6763 13.4115 44.565 13.1452L44.1068 12.0572C44.1004 12.0419 44.0979 12.0239 44.1004 12.0073L44.1184 11.8563C44.1209 11.8319 44.1324 11.8102 44.1516 11.7935C44.5087 11.4787 45.837 10.4572 47.8936 10.543C48.1623 10.5545 48.2097 10.4073 48.2174 10.3446C48.2545 10.0425 47.5647 9.68666 46.9223 9.55482C46.0392 9.37434 43.6922 8.89562 41.8148 10.1283L41.8007 10.1385C40.5875 11.1523 39.6124 11.9267 39.6021 11.9343L39.5804 11.9561C39.5663 11.9727 39.2233 12.3836 39.3065 12.9071C39.3603 13.2476 39.1837 13.3692 39.1734 13.3756C39.1632 13.382 38.9226 13.5331 38.6743 13.3628C38.3736 13.1375 37.8515 13.5241 37.7452 13.6086L36.9569 14.287L36.9416 14.3023C36.9275 14.319 36.5896 14.7145 37.0414 15.3494C37.4317 15.8985 37.5699 16.0815 37.909 16.5039C38.2533 16.9315 38.874 17.4729 38.9072 17.5011C38.9226 17.5139 39.3014 17.8006 39.8235 17.4012C40.2523 17.0723 40.5965 16.7753 40.5965 16.7753C40.6247 16.7523 40.8729 16.5475 40.8844 16.2454C40.8883 16.1583 40.8844 16.0828 40.8844 16.0137C40.878 15.8012 40.8768 15.7385 41.0367 15.6361C41.1135 15.6361 41.349 15.7219 41.5512 15.8243C41.5729 15.8371 42.0784 16.1212 42.5379 16.1007C42.8271 16.1391 43.147 16.4681 43.2571 16.6025C43.2673 16.6127 44.245 17.6393 45.622 19.4403C45.8844 19.782 46.848 21.0659 47.1117 21.4243C47.5519 22.0233 48.2186 22.9295 48.9353 23.9062C50.1766 25.5971 51.569 27.4927 52.2012 28.3452C52.4111 28.6281 52.7169 28.8201 53.0625 28.8867L53.2967 28.9315C53.3862 28.9481 53.4758 28.9571 53.5654 28.9571C53.98 28.9571 54.3729 28.7753 54.6327 28.4527L54.6468 28.4348C54.8336 28.198 54.936 27.8947 54.936 27.5823V27.3686H54.9335ZM56.0353 12.1865L55.7627 11.9139C55.6834 11.8345 55.572 11.7871 55.4594 11.7961C55.3468 11.8012 55.2406 11.8524 55.1676 11.9395L53.4528 13.9683C53.4042 14.0259 53.3351 14.0617 53.2608 14.0694L52.6504 14.1308C52.5723 14.1385 52.4943 14.1142 52.4341 14.0643L51.459 13.2387C51.3962 13.1849 51.3591 13.1081 51.3566 13.0262L51.3425 12.5372C51.3399 12.4668 51.3643 12.3977 51.409 12.3439L53.0765 10.3343C53.202 10.1833 53.2007 9.96442 53.074 9.81338L52.9063 9.61498C52.7963 9.4857 52.6146 9.43834 52.4559 9.4985C52.0617 9.64826 51.0686 10.0361 50.3507 10.4252C49.3359 10.9731 48.6307 11.8422 48.5091 12.6934C48.4196 13.3167 48.4567 14.3446 48.4874 14.9014C48.4989 15.1203 48.4503 15.3391 48.3441 15.535C48.2135 15.7782 47.9832 16.1673 47.6325 16.6358C47.4534 16.8828 47.3407 16.9737 47.1859 17.1567L49.0722 19.375C49.5265 18.8451 49.9245 18.4431 50.2714 18.0553C50.9048 17.35 51.1019 17.3436 51.6292 17.3257C51.9542 17.3142 52.3996 17.3001 53.1047 17.1235C55.0294 16.6422 55.6386 14.5583 55.6642 14.4662L56.1428 12.5731C56.1774 12.4361 56.1364 12.2876 56.0366 12.1878L56.0353 12.1865ZM26.4374 25.4012C26.2301 26.2102 26.1623 27.5887 25.1104 27.6284C25.0233 28.0956 25.4341 28.271 25.8065 28.1212C26.1764 27.951 26.3517 28.2556 26.4758 28.559C27.0466 28.6422 27.8912 28.3683 27.9232 27.6924C27.0709 27.2009 26.8073 26.2665 26.4362 25.4012H26.4374Z" fill="white"/>
</svg>
