<svg width="63" height="33" viewBox="0 0 63 33" fill="none" xmlns="http://www.w3.org/2000/svg">
<path d="M46.3115 0.922363C55.0116 0.922594 62.0888 8.03966 62.0889 16.7876C62.0889 25.5356 55.0116 32.6526 46.3115 32.6528H15.7783C7.07804 32.6528 0 25.5357 0 16.7876C5.05059e-05 8.03952 7.07807 0.922363 15.7783 0.922363H46.3115ZM18.7617 7.59326C17.4502 5.6482 13.3096 5.11693 12.7021 7.86475C12.7046 7.94944 12.677 8.00428 12.6025 8.05908C12.2666 8.30596 11.9681 8.58614 11.7168 8.92529C11.1022 9.7856 11.0072 11.244 11.7734 12.0171C11.8008 11.6081 11.8137 11.2239 12.1348 10.9321C12.7271 11.4434 13.6256 11.6252 14.3125 11.2437C15.8306 13.4257 15.4522 16.4438 16.6592 18.7954C16.9926 19.3514 17.3289 19.9196 17.7568 20.4058C18.1052 20.9469 19.3043 21.5885 19.374 22.0923C19.3864 22.955 19.2873 23.8975 19.8496 24.6206C20.1158 25.1617 19.4636 25.7055 18.9385 25.6382C18.2566 25.7329 17.4254 25.1765 16.8281 25.5181C16.6166 25.7475 16.2032 25.4938 16.0215 25.813C15.9563 25.9775 15.6165 26.2092 15.8203 26.3687C16.0468 26.1966 16.256 26.0174 16.5596 26.1196C16.515 26.3687 16.711 26.4038 16.8652 26.4761C16.8602 26.6431 16.7613 26.8149 16.8906 26.9595C17.0398 26.8074 17.1295 26.5912 17.3682 26.5288C18.1619 27.5905 18.9682 25.4543 20.6826 26.4165C20.3346 26.3991 20.0238 26.4412 19.79 26.73C19.7328 26.7948 19.6831 26.8698 19.7852 26.9546C20.7105 26.3541 20.706 27.1594 21.3057 26.9126C21.7685 26.6707 22.2265 26.3663 22.7764 26.4536C22.2413 26.6082 22.2208 27.0397 21.9072 27.4038C21.8527 27.4586 21.8276 27.5236 21.8896 27.6157C22.9971 27.5235 23.0875 27.1516 23.9834 26.6978C24.6502 26.2868 25.3173 27.2813 25.8945 26.7153C26.0239 26.5933 26.1978 26.6351 26.3545 26.6177C26.1524 25.5362 23.933 26.8149 23.9678 25.3638C24.682 24.875 24.5181 23.9397 24.5654 23.1841C25.3867 23.6429 26.3001 23.9073 27.1064 24.3462C27.5146 25.0045 28.1514 25.8771 29 25.8198C29.0223 25.7527 29.0426 25.6956 29.0674 25.6284C29.3237 25.6733 29.655 25.8427 29.7969 25.5161C30.1801 25.9198 30.7474 25.9001 31.25 25.7954L31.2549 25.7974C31.6277 25.4931 30.5555 25.0592 30.4111 24.7476C30.6595 24.4433 29.5107 23.5912 29.2764 23.2769C28.7986 22.7557 28.7956 22.0074 28.4746 21.3989C27.6857 19.5635 26.7823 17.7426 25.5156 16.189C24.1768 14.4909 22.5269 13.0846 21.0762 11.4888C20.0011 10.3766 19.7124 8.79027 18.7617 7.59326ZM43.2148 21.1831C42.808 21.1325 42.3939 21.1789 42.0078 21.3169C41.6219 21.455 41.2736 21.6819 40.9912 21.979C40.7088 22.2763 40.4999 22.6362 40.3818 23.0288C40.2638 23.4214 40.239 23.8371 40.3105 24.2407C40.3823 24.6442 40.5481 25.0261 40.7939 25.354C41.0399 25.6818 41.3603 25.9474 41.7275 26.1294C42.095 26.3113 42.5011 26.405 42.9111 26.4019C43.4708 26.3974 44.0151 26.214 44.4629 25.8784C44.9105 25.5428 45.2393 25.0723 45.4004 24.5366C45.5614 24.0009 45.5459 23.4266 45.3574 22.8999C45.1689 22.3737 44.8166 21.9208 44.3525 21.6089C44.0122 21.3804 43.6217 21.2339 43.2148 21.1831ZM38.4668 13.7339C38.1905 13.6339 37.8985 13.581 37.6045 13.5776C36.9119 13.5778 36.2476 13.8522 35.7578 14.3403C35.268 14.8286 34.9923 15.4916 34.9922 16.1821C34.9923 16.8726 35.2681 17.5356 35.7578 18.0239C36.2476 18.512 36.912 18.7864 37.6045 18.7866C37.8985 18.7833 38.1904 18.7304 38.4668 18.6304L39.9756 20.8696L41.0596 20.1401L39.5645 17.9009C39.8328 17.5937 40.0251 17.2273 40.126 16.8325H44.1367V15.5308H40.126C40.0251 15.1362 39.8327 14.7704 39.5645 14.4634L41.0732 12.2231L39.9756 11.4937L38.4668 13.7339ZM44.792 12.2603L46.3018 14.4692C45.8914 14.9434 45.6622 15.5509 45.6621 16.1821C45.6622 16.8764 45.9387 17.5426 46.4297 18.0337C46.9209 18.5246 47.5876 18.8012 48.2822 18.8013C48.977 18.8012 49.6435 18.5248 50.1348 18.0337C50.6259 17.5426 50.9022 16.8765 50.9023 16.1821C50.9022 15.4878 50.6259 14.8207 50.1348 14.3296C49.6435 13.8389 48.9767 13.5631 48.2822 13.563C47.9571 13.563 47.6384 13.6251 47.3408 13.7397L45.8379 11.5415L44.792 12.2603ZM43.2148 5.97412C42.8079 5.92347 42.3939 5.96889 42.0078 6.10693C41.6219 6.24502 41.2735 6.47203 40.9912 6.76904C40.7089 7.06626 40.5 7.42636 40.3818 7.81885C40.2638 8.21142 40.239 8.62714 40.3105 9.03076C40.3822 9.43423 40.5482 9.81609 40.7939 10.144C41.0399 10.4719 41.3602 10.7384 41.7275 10.9204C42.095 11.1023 42.5011 11.195 42.9111 11.1919C43.4708 11.1875 44.0151 11.004 44.4629 10.6685C44.9104 10.3328 45.2393 9.8623 45.4004 9.32666C45.5613 8.79104 45.5458 8.2175 45.3574 7.69092C45.1689 7.16442 44.8168 6.71093 44.3525 6.39893C44.0122 6.1704 43.6217 6.02488 43.2148 5.97412Z" fill="#076699"/>
</svg>
