<svg width="71" height="40" viewBox="0 0 71 40" fill="none" xmlns="http://www.w3.org/2000/svg">
<path d="M70.6826 19.9416C70.6826 30.5185 62.6425 39.1221 52.7617 39.1221H18.0811C8.20023 39.1221 0.160156 30.5185 0.160156 19.9416C0.160156 9.36477 8.20023 0.761185 18.0811 0.761185H52.7617C62.644 0.761185 70.6826 9.3663 70.6826 19.9416Z" fill="#076699"/>
<path d="M25.9973 26.1635C26.3685 27.0285 26.633 27.9619 27.4855 28.4532C27.4535 29.1291 26.6081 29.4032 26.0369 29.32C25.9127 29.0167 25.7371 28.7124 25.367 28.8827C24.9945 29.0322 24.5835 28.8568 24.6704 28.3899C25.7226 28.3502 25.7901 26.9727 25.9973 26.1635Z" fill="white"/>
<path fill-rule="evenodd" clip-rule="evenodd" d="M50.9106 3.94165C59.7385 3.94165 66.9195 11.1199 66.9195 19.9417C66.9195 28.7647 59.7372 35.9417 50.9106 35.9417H19.9308C11.1042 35.9417 3.92188 28.7647 3.92188 19.9417C3.92188 11.1186 11.1042 3.94165 19.9308 3.94165H50.9106ZM22.9547 10.6652C21.6253 8.70304 17.4221 8.1683 16.806 10.9393C16.8085 11.0262 16.7814 11.0812 16.706 11.1362C16.3654 11.3832 16.0614 11.6662 15.8066 12.0079C15.1829 12.8758 15.0873 14.3483 15.866 15.1278C15.8916 14.7169 15.9058 14.3288 16.2311 14.0344C16.833 14.5501 17.7418 14.7332 18.4396 14.3481C19.9816 16.5484 19.598 19.5926 20.8223 21.9632C21.1603 22.5236 21.5006 23.0956 21.9345 23.5869C22.2866 24.1346 23.5028 24.781 23.5751 25.2878C23.5879 26.1582 23.4859 27.1095 24.0569 27.8378C24.3258 28.3829 23.6655 28.9304 23.1328 28.8629C22.4413 28.9576 21.5973 28.3991 20.9915 28.7431C20.7776 28.9748 20.3586 28.7188 20.1742 29.04C20.1102 29.2063 19.7646 29.44 19.9704 29.6C20.1994 29.4261 20.412 29.2452 20.7204 29.3487C20.6746 29.5992 20.8736 29.635 21.0311 29.7079C21.026 29.8781 20.9262 30.052 21.0568 30.1967C21.209 30.0431 21.2998 29.8253 21.5417 29.7613C22.3459 30.8327 23.1645 28.6774 24.9049 29.6475C24.5515 29.6296 24.2377 29.6748 23.9995 29.9652C23.9406 30.0304 23.8909 30.1073 23.9946 30.1917C24.933 29.5867 24.9278 30.3987 25.5372 30.1492C26.0059 29.9047 26.4723 29.5992 27.0294 29.6861C26.4878 29.8423 26.4661 30.2776 26.1487 30.6449C26.0949 30.7012 26.0691 30.7652 26.1319 30.8587C27.2561 30.7639 27.3486 30.3907 28.2563 29.9325C28.9338 29.5191 29.6092 30.5212 30.1957 29.9503C30.3251 29.8261 30.5017 29.868 30.6618 29.8514C30.4569 28.7595 28.2037 30.051 28.2395 28.5868C28.9643 28.094 28.7984 27.1507 28.847 26.3891C29.6807 26.8511 30.6077 27.1202 31.4247 27.5617C31.837 28.2273 32.4844 29.1065 33.3462 29.0489C33.3692 28.9825 33.3893 28.9236 33.4135 28.8559C33.6747 28.9007 34.0101 29.0729 34.1537 28.7431C34.5442 29.1513 35.1181 29.131 35.629 29.0261C35.983 28.7382 35.0497 28.3354 34.8107 28.0258L34.7741 27.9664C35.0264 27.6605 33.8605 26.7983 33.6223 26.4822C33.1384 25.9574 33.1355 25.2023 32.809 24.5893C32.0098 22.7384 31.0913 20.9018 29.8068 19.3351C28.4493 17.6212 26.7742 16.2024 25.3027 14.5935C24.2106 13.4709 23.9189 11.8721 22.9547 10.6652ZM44.5443 10.0211C44.5373 10.0211 43.6349 10.0253 43.6349 11.0561C43.635 11.604 43.8896 12.0711 44.1297 12.3889C44.362 12.6965 44.5396 13.0612 44.5314 13.4467L44.4245 18.4337C44.4142 18.9187 44.263 19.3911 43.9902 19.7922L39.5533 26.3149C38.4057 28.0022 39.6143 30.2857 41.655 30.2857H52.2761C54.3242 30.2856 55.5308 27.9871 54.3679 26.3011L49.9142 19.8447C49.615 19.4107 49.4607 18.8934 49.4719 18.3664L49.5778 13.3784C49.5852 13.0323 49.7419 12.7071 49.9419 12.4245C50.167 12.1065 50.4168 11.6249 50.4169 11.0561C50.4169 10.0213 49.5897 10.0211 49.5897 10.0211H44.5443Z" fill="white"/>
<path fill-rule="evenodd" clip-rule="evenodd" d="M48.9489 21.1053C49.2881 21.1053 49.6051 21.2751 49.793 21.5575L53.273 26.7938C53.9439 27.804 53.2192 29.1548 52.0064 29.1548H42.0591C40.8494 29.1548 40.1246 27.8094 40.7896 26.7988L44.236 21.5614C44.4234 21.2769 44.7413 21.1054 45.082 21.1053H48.9489ZM48.3345 24.5398C47.4669 24.54 46.7642 25.2435 46.7641 26.1111C46.7641 26.9787 47.4669 27.6822 48.3345 27.6824C49.2022 27.6824 49.9058 26.9788 49.9058 26.1111C49.9057 25.2434 49.2022 24.5398 48.3345 24.5398ZM45.93 22.5776C45.4024 22.5777 44.9752 23.0058 44.9752 23.5335C44.9753 24.061 45.4025 24.4883 45.93 24.4883C46.4576 24.4883 46.8857 24.0611 46.8859 23.5335C46.8859 23.0058 46.4577 22.5776 45.93 22.5776Z" fill="white"/>
</svg>
